<?xml version="1.0" encoding="utf-8" ?>
<svg baseProfile="full" height="300mm" version="1.1" viewBox="0,0,200,300" width="200mm" xmlns="http://www.w3.org/2000/svg" xmlns:ev="http://www.w3.org/2001/xml-events" xmlns:xlink="http://www.w3.org/1999/xlink"><defs /><rect fill="#222222" height="300" width="200" x="0" y="0" /><text fill="#FFFFFF" style="font-size:12px; font-family:Arial; font-weight:bold;" x="10" y="20">Over 10km Runs</text><text fill="#FFFFFF" style="font-size:4px; font-family:Arial" x="10" y="280">Runner</text><text fill="#FFFFFF" style="font-size:9px; font-family:Arial" x="10" y="290">Grant</text><text fill="#FFFFFF" style="font-size:4px; font-family:Arial" x="65" y="280">SPECIAL TRACKS</text><rect fill="yellow" height="2.6" width="2.6" x="65" y="283" /><text fill="#FFFFFF" style="font-size:3px; font-family:Arial" x="70" y="285.5">Over 20.0 km</text><rect fill="red" height="2.6" width="2.6" x="65" y="287" /><text fill="#FFFFFF" style="font-size:3px; font-family:Arial" x="70" y="289.5">Over 40.0 km</text><text fill="#FFFFFF" style="font-size:4px; font-family:Arial" x="120" y="280">STATISTICS</text><text fill="#FFFFFF" style="font-size:3px; font-family:Arial" x="120" y="285">Number: 25</text><text fill="#FFFFFF" style="font-size:3px; font-family:Arial" x="120" y="290">Weekly: 1.8</text><text fill="#FFFFFF" style="font-size:3px; font-family:Arial" x="141" y="285">Total: 386.8 km</text><text fill="#FFFFFF" style="font-size:3px; font-family:Arial" x="141" y="290">Avg: 15.5 km</text><text fill="#FFFFFF" style="font-size:3px; font-family:Arial" x="167" y="285">Min: 10.0 km</text><text fill="#FFFFFF" style="font-size:3px; font-family:Arial" x="167" y="290">Max: 43.5 km</text><polyline fill="none" opacity="1" points="27.425721003724902,32.5357939056521 27.099116835233872,32.528650329550146 26.973918570642127,32.528650329550146 26.90859773694683,32.52150675238954 26.696305027428025,32.51436317416301 26.522116137566627,32.557224627646065 26.45679530387133,32.63580385999376 26.467682109483576,32.98583706472709 26.369700858936994,33.14299400258824 26.17373835784383,33.10727656172821 25.896124814615177,33.12156354127001 25.787256758463627,33.150137487573375 25.373558145030984,33.14299400258824 24.731236613668443,33.228715752578864 24.453623070432513,33.17871141697469 24.306651194623555,33.14299400258824 24.273990777779545,32.93583247694551 24.27943418057839,32.63580385999376 24.328424805862596,31.857149443862 24.39918904235674,31.82143104939314 24.595151543457177,31.814287367316865 25.019736962487514,31.83571841036246 25.406218561874994,31.864293119564536 25.542303632093535,31.871436794233887 26.135634538179147,31.878580467822758 26.467682109483576,31.88572414036753 26.587436971261923,32.4143529676403 26.919484542559076,32.528650329550146 27.452938017777342,32.51436317416301 27.033796001538576,32.51436317416301 26.963031765029882,32.5357939056521 26.52755954037275,32.64294742020502 26.473125512296974,32.71438296411361 26.445908498259087,33.52159724715602 26.396917872974882,33.993061277851666 26.407804678587127,34.50738041160366 26.402361275781004,35.05741007445977 26.38058766454924,35.41456882964485 26.407804678587127,35.7431525453685 26.358814053317474,36.40031325220116 26.298936622435576,36.51460115554437 26.391474470176036,36.72174728918981 26.304380025234423,37.20746576434249 26.473125512296974,37.50746590507697 26.543889748798392,37.628894002296875 26.77251266674284,37.9717481538828 26.783399472369638,38.007461987654096 26.83783350045269,38.10031783157319 27.05012620996422,38.414597821232746 27.088230029621627,38.47173941724759 27.295079336341587,38.82887285653851 27.42027760091878,39.03600903813276 27.561806073936168,39.23600174762396 27.784985589074495,39.300284942193684 28.051712326683628,39.50027655447411 28.41097691201867,39.828832400718966 28.753911288942618,39.857402368430485 29.352685597841628,39.86454485768627 29.624855738256883,39.857402368430485 30.06032796290674,39.86454485768627 30.31616789490363,39.878829833069176 30.66998907742527,39.878829833069176 31.01836685716262,39.885972319149005 31.687905402570323,39.92168473374841 31.791330055923027,39.935969692192884 31.818547069960914,40.11453131507005 31.83487727840111,40.2788074235832 31.823990472774312,40.328804388889694 31.83487727840111,40.535934120933234 31.76955644469126,40.864482903660246 31.76955644469126,41.05018339835442 31.758669639064465,41.271594591089524 31.747782833466772,41.500147012971865 31.758669639064465,41.764409399089345 31.785886653116904,42.15722918595202 31.764113041870587,42.29292982248808 31.726009222220455,43.01427942128066 31.709679013809364,43.67134094301582 31.698792208182567,44.16413120348443 31.72056581942161,44.57121500816356 31.698792208182567,44.828318796786334 31.71512241660821,45.113988063876604 31.66068838852516,45.7067463893145 31.66068838852516,47.09934267824792 31.57903734640422,47.38499848045467 31.432065470573434,47.399281226102175 31.323197414414608,47.527825746474264 31.306867205988965,48.60615794003024 31.274206789144955,49.80586341116941 31.268763386331557,49.91297851855779 31.252433177905914,51.2411860683751 31.246989775107068,52.02666792961827 31.214329358248506,52.633622416811704 31.20344255263626,53.297693274558696 31.154451927359332,55.48977619937796 31.12723491332872,56.42512976851867 31.083687690857914,57.27478635999432 31.040140468387108,57.7460180120579 31.06735748243227,58.581371890406444 31.045583871200506,59.71657318529833 30.991149843117455,61.44431252282084 30.95848942626617,61.98689556963291 30.991149843117455,62.301019805221586 30.969376231878414,63.13629474585832 31.14900852455321,63.90016599525916 30.996593245923577,64.14288890478201 31.12723491332872,63.971555213174724 31.040140468387108,63.543218319904554 31.01836685716262,62.20107140686014 31.045583871200506,61.294387182926585 31.051027274013904,60.20205991643161 31.083687690857914,59.25964003007539 31.105461302075128,58.8812389818886 31.061914079618873,57.86739511563428 31.138121718940965,56.9677693200465 31.208885955442383,53.81180636361023 31.252433177905914,52.81927755667857 31.252433177905914,52.03380861507685 31.274206789144955,50.926989738811244 31.26331998353271,49.94154250696738 31.323197414414608,48.856099043136055 31.34497102565365,47.65636992387954 31.415735262155067,47.48497761111503 31.589924152031017,47.356432976437645 31.687905402570323,46.18523273019309 31.69334880536917,45.56391372480357 31.709679013809364,44.92830323295129 31.72056581942161,44.72833415314017 31.726009222220455,44.371244446232595 31.731452625033853,43.521360298007494 31.731452625033853,43.371379186104605 31.75322623626562,43.12855163402128 31.75322623626562,42.828586497507786 31.77499984750466,41.978675134454534 31.677018596950802,41.950106424814294 31.535490123947966,41.87868457654622 31.29598040037672,41.85725800142609 31.007480051535822,41.85725800142609 30.59378143811773,41.85725800142609 30.31072449209023,41.85725800142609 29.858922059007455,41.8358314167599 29.858922059007455,40.95019091323775 29.891582475851465,40.37880130230042 29.891582475851465,40.03596428255696 29.815374836543924,39.90739977109479 29.418006431551476,39.86454485768627 28.74302448331582,39.84311738670294 28.44363732887723,39.8359748942421 28.27489184181468,39.74312239601204 28.002721701399423,39.45742127889025 27.54003246271168,39.18600364809754 27.322296350379474,38.88601396112426 27.153550863316923,38.60030776041822 27.00113558468729,38.35745615746055 26.761625861130597,37.97889092275 26.543889748798392,37.60032271284217 26.396917872974882,37.300323150411714 26.309823428040545,37.19317999672057 26.32071023366734,37.19317999672057 26.375144261750393,36.714604333894385 26.315266830853943,36.47174322356659 26.402361275781004,35.84315584000069 26.375144261750393,35.37885307331453 26.402361275781004,34.15021492919914 26.44046509544569,33.50731038630329 26.28260641399538,33.17871141697469 26.043096690438688,33.10013307038025 25.32456751976133,33.13585051654809 25.123161615862045,33.26443310336981 24.671359182771994,33.26443310336981 24.263103972138197,33.20728532939029 24.16512272159889,33.14299400258824 24.20322654127085,31.88572414036753 24.306651194623555,31.80000000000291 24.79111404455034,31.850005767097173 26.462238706670178,31.88572414036753 26.467682109483576,33.0501286012659 26.396917872974882,33.185854896655655 26.17918176065723,33.11442005204299 25.961445648325025,33.11442005204299 25.449765784353076,33.13585051654809 25.351784533806494,33.12870702944565 25.183039046743943,33.243002696057374 24.796557447349187,33.29300696491555 24.50805709852284,33.20728532939029 24.290320986190636,33.185854896655655 24.192339735644055,32.657234537469776 24.3120945974224,31.80000000000291 24.894538697903045,31.828574730396213 25.291907102910045,31.84286208924823 26.222728983113484,31.850005767097173 26.48945572071534,31.95716080744387 26.45679530387133,32.335773373979464 26.451351901057933,32.84296667618037 26.429578289818892,33.15728097151077 26.28260641399538,33.164424454396794 26.07031370448385,33.092989577980916 25.7328227303733,33.12156354127001 25.193925852356188,33.228715752578864 25.008850156882545,33.278720036272716 24.535274112568004,33.20014185285254 24.192339735644055,33.10727656172821 24.20322654127085,31.878580467822758 24.290320986190636,31.80000000000291 24.65502897434635,31.828574730396213 25.50419981242885,31.871436794233887 25.868907800562738,31.871436794233887 26.462238706670178,31.88572414036753 26.462238706670178,32.257193652101705 26.48945572071534,32.664378094515996 26.620097388120485,32.528650329550146 26.83783350045269,32.485788850608515 27.224315099825617,32.49293243309512" stroke="#4dd2ff" stroke-dasharray="none" stroke-linecap="round" stroke-linejoin="round" stroke-width="0.5"><title>2026-06-02 16.2km</title><desc>18764964573</desc></polyline><polyline fill="none" opacity="0.5" points="64.99224962241715,64.20000000001164 65.19357563287485,63.866382035950664 65.33737992594251,63.2362136078591 65.5387059362256,62.717250231449725 66.02764053281862,62.64311252205516 66.60285770520568,62.754319078318076 67.35064002941363,62.828456756076775 68.47231351555092,62.79138791980222 68.73116124316584,62.27242365965503 68.90372639492853,60.86380118411034 67.63824861560715,60.011210206052056 65.65374937071465,58.89913083464489 63.784293560369406,57.93532488279743 62.4612940637744,57.342211760231294 61.771033456898294,56.89737603426329 60.217947091383394,55.74821356922621 59.18255618098192,54.784395990282064 57.48566552239936,53.375733131193556 56.33523117756704,52.07827377636568 54.66710137744667,50.26181985143921 53.91931905335514,49.1496989686857 53.51666703261435,48.77899095532484 53.056493294774555,48.03757335030241 52.71136299124919,46.88837190310005 52.48127612227108,46.29523369384697 52.308710970624816,45.18309592071455 52.797645567159634,44.51581098369206 53.200297587842215,43.99681040958967 53.02773243607953,43.29245083799469 52.855167284433264,41.66129506274592 52.71136299124919,40.17841733593377 52.653841274033766,39.362830997270066 52.48127612227108,38.43602524805465 52.22242839471437,35.840951652644435 52.107384960283525,34.98827898586751 51.96358066709945,33.65365530960844 51.87729809124721,32.91219476459082 51.96358066709945,32.31902481292491 54.149405922333244,32.13365892670117 55.299840267165564,32.059512535401154 56.56531804648694,32.430244281567866 58.00336097757099,32.68975619066623 59.61396906035952,32.68975619066623 60.59183825348737,32.281951646262314 61.7997943154769,31.800000000017462 62.37501148798037,32.13365892670117 63.0940329534933,33.431217367207864 63.43916325690225,34.76584218008793 63.726771843095776,35.65558826626511 64.38827159139328,36.69362153552356 66.2002056845813,38.139446713757934 68.155944070837,39.99305702804122 69.10505240526982,41.068144982506055 72.3550294294837,43.73730973576312 73.24661604670109,44.330453754228074 74.94350670528365,46.591802966810064 75.51872387778712,47.444437750877114 76.06518019153737,48.63070760274422 76.1514627673896,50.113537340657786 76.06518019153737,51.0403016518394 75.40368044323986,52.37483648286434 74.39705039153341,53.52401378986542 73.62050720880507,54.48783601974719 73.13157261221204,55.63700403011171 72.67139887425583,57.008585036732256 72.41255114669912,57.74997717663064 70.65813877078472,60.23362551210448 69.47894356731558,61.456906310253544 68.87496553634992,62.30949256947497 67.92585720180068,62.64311252205516 66.77542285696836,62.64311252205516 65.82631452247733,62.45776815660065 65.16481477417983,64.16293135844171 65.39490164315794,63.606901102670236 65.50994507764699,62.90259441285161 65.65374937071465,62.606043659412535 66.37277083628578,62.754319078318076 66.94798800873104,62.828456756076775 67.81081376731163,62.939663233351894 68.67363952600863,62.531905918585835 68.8462046776549,62.05001008952968 68.87496553634992,60.71552469229209 66.25772740179673,59.343963151448406 64.2157064396306,58.26895042243996 63.23783724656096,57.638768489821814 62.173685477580875,57.1197939919075 60.70688168791821,56.1189116910391 59.87281678785803,55.34044502765755 58.26220870518591,53.74643462014501 57.054252643021755,52.81967991119018 55.99010087404167,51.559288229764206 54.12064506375464,49.40919426488108 53.77551476017106,49.075557408097666 53.54542789130937,48.593636751378654 52.855167284433264,47.14786944605294 52.62508041539695,46.554731826123316 52.27995011192979,45.44259515797603 52.42375440505566,44.96066779777175 53.142775870568585,44.219239353376906 53.08525415335316,43.70023818980553 52.941449860227294,42.18030027812347 52.82640642573824,40.91985725177801 52.740123849886004,40.06720116708311 52.68260213267058,39.103325719042914 52.5100369809079,38.139446713757934 52.19366753613576,35.24778835295001 52.13614581886213,34.61755087101483 51.992341525736265,33.431217367207864 51.8485372326104,32.578536832588725 52.653841274033766,32.20780529701733 54.810905670630746,32.17073211458046 55.67373142926954,32.13365892670117 56.99673092580633,32.35609797440702 59.125034463824704,32.763902403065 59.84405592927942,32.504390567628434 60.9082076982595,32.281951646262314 62.0011203258764,31.837073235074058 62.86394608451519,32.94926784190466 63.180315529345535,34.13560353498906 63.43916325690225,34.98827898586751 63.7555327017908,35.840951652644435 64.81968447077088,37.13849167356966 67.40816174668726,39.28868665837217 68.81744381907629,40.8457133549673 70.62937791220611,42.66223276880919 72.75768145016627,44.070953411923256 74.82846327085281,46.33230487132096 75.37491958466126,47.14786944605294 75.86385418119607,48.00050241485587 76.1514627673896,49.075557408097666 76.03641933295876,50.66959632202634 75.77757160540204,51.78171073310659 75.05855013983091,52.8567501627258 73.9081157949986,54.08006551049766 73.30413776397472,55.1550954800623 72.93024660192896,56.52667901729001 72.58511629840359,57.342211760231294 72.12494256050559,58.083602953120135 69.91035644669319,60.826732069050195 69.42142185010016,61.71638937940588 68.32850922248326,62.56897479167674 67.60948775697034,62.56897479167674 66.11392310867086,62.45776815660065 65.19357563287485,63.495694909390295 65.19357563287485,63.866382035950664 65.33737992594251,63.2362136078591 65.5387059362256,62.717250231449725 66.02764053281862,62.64311252205516 66.60285770520568,62.754319078318076 67.35064002941363,62.828456756076775 68.47231351555092,62.79138791980222 68.73116124316584,62.27242365965503 68.90372639492853,60.86380118411034 67.63824861560715,60.011210206052056 65.65374937071465,58.89913083464489 63.784293560369406,57.93532488279743 62.4612940637744,57.342211760231294 61.771033456898294,56.89737603426329 60.217947091383394,55.74821356922621 59.18255618098192,54.784395990282064 57.48566552239936,53.375733131193556 56.33523117756704,52.07827377636568 54.66710137744667,50.26181985143921 53.91931905335514,49.1496989686857 53.51666703261435,48.77899095532484 53.056493294774555,48.03757335030241 52.71136299124919,46.88837190310005 52.48127612227108,46.29523369384697 52.308710970624816,45.18309592071455 52.797645567159634,44.51581098369206 53.200297587842215,43.99681040958967 53.02773243607953,43.29245083799469 52.855167284433264,41.66129506274592 52.71136299124919,40.17841733593377 52.653841274033766,39.362830997270066 52.48127612227108,38.43602524805465 52.22242839471437,35.840951652644435 52.107384960283525,34.98827898586751 51.96358066709945,33.65365530960844 51.87729809124721,32.91219476459082 51.96358066709945,32.31902481292491 54.149405922333244,32.13365892670117 55.299840267165564,32.059512535401154 56.56531804648694,32.430244281567866 58.00336097757099,32.68975619066623 59.61396906035952,32.68975619066623 60.59183825348737,32.281951646262314 61.7997943154769,31.800000000017462 62.37501148798037,32.13365892670117 63.0940329534933,33.431217367207864 63.43916325690225,34.76584218008793 63.726771843095776,35.65558826626511 64.38827159139328,36.69362153552356 66.2002056845813,38.139446713757934 68.155944070837,39.99305702804122 69.10505240526982,41.068144982506055 72.3550294294837,43.73730973576312 73.24661604670109,44.330453754228074 74.94350670528365,46.591802966810064 75.51872387778712,47.444437750877114 76.06518019153737,48.63070760274422 76.1514627673896,50.113537340657786 76.06518019153737,51.0403016518394 75.40368044323986,52.37483648286434 74.39705039153341,53.52401378986542 73.62050720880507,54.48783601974719 73.13157261221204,55.63700403011171 72.67139887425583,57.008585036732256 72.41255114669912,57.74997717663064 70.65813877078472,60.23362551210448 69.47894356731558,61.456906310253544 68.87496553634992,62.30949256947497 67.92585720180068,62.64311252205516 66.77542285696836,62.64311252205516 65.82631452247733,62.45776815660065 65.16481477417983,64.16293135844171 65.39490164315794,63.606901102670236 65.50994507764699,62.90259441285161 65.65374937071465,62.606043659412535 66.37277083628578,62.754319078318076 66.94798800873104,62.828456756076775 67.81081376731163,62.939663233351894 68.67363952600863,62.531905918585835 68.8462046776549,62.05001008952968 68.87496553634992,60.71552469229209 66.25772740179673,59.343963151448406 64.2157064396306,58.26895042243996 63.23783724656096,57.638768489821814 62.173685477580875,57.1197939919075 60.70688168791821,56.1189116910391 59.87281678785803,55.34044502765755 58.26220870518591,53.74643462014501 57.054252643021755,52.81967991119018 55.99010087404167,51.559288229764206 54.12064506375464,49.40919426488108 53.77551476017106,49.075557408097666 53.54542789130937,48.593636751378654 52.855167284433264,47.14786944605294 52.62508041539695,46.554731826123316 52.27995011192979,45.44259515797603 52.42375440505566,44.96066779777175 53.142775870568585,44.219239353376906 53.08525415335316,43.70023818980553 52.941449860227294,42.18030027812347 52.82640642573824,40.91985725177801 52.740123849886004,40.06720116708311 52.68260213267058,39.103325719042914 52.5100369809079,38.139446713757934 52.19366753613576,35.24778835295001 52.13614581886213,34.61755087101483 51.992341525736265,33.431217367207864 51.8485372326104,32.578536832588725 52.653841274033766,32.20780529701733 54.810905670630746,32.17073211458046 55.67373142926954,32.13365892670117 56.99673092580633,32.35609797440702 59.125034463824704,32.763902403065 59.84405592927942,32.504390567628434 60.9082076982595,32.281951646262314 62.0011203258764,31.837073235074058 62.86394608451519,32.94926784190466 63.180315529345535,34.13560353498906 63.43916325690225,34.98827898586751 63.7555327017908,35.840951652644435 64.81968447077088,37.13849167356966 67.40816174668726,39.28868665837217 68.81744381907629,40.8457133549673 70.62937791220611,42.66223276880919 72.75768145016627,44.070953411923256 74.82846327085281,46.33230487132096 75.37491958466126,47.14786944605294 75.86385418119607,48.00050241485587 76.1514627673896,49.075557408097666 76.03641933295876,50.66959632202634 75.77757160540204,51.78171073310659 75.05855013983091,52.8567501627258 73.9081157949986,54.08006551049766 73.30413776397472,55.1550954800623 72.93024660192896,56.52667901729001 72.58511629840359,57.342211760231294 72.12494256050559,58.083602953120135 69.91035644669319,60.826732069050195 69.42142185010016,61.71638937940588 68.32850922248326,62.56897479167674 67.60948775697034,62.56897479167674 66.11392310867086,62.45776815660065 65.19357563287485,63.495694909390295 65.19357563287485,63.866382035950664 65.33737992594251,63.2362136078591 65.5387059362256,62.717250231449725 66.02764053281862,62.64311252205516 66.60285770520568,62.754319078318076 67.35064002941363,62.828456756076775 68.47231351555092,62.79138791980222 68.73116124316584,62.27242365965503 68.90372639492853,60.86380118411034 67.63824861560715,60.011210206052056 65.65374937071465,58.89913083464489 63.784293560369406,57.93532488279743 62.4612940637744,57.342211760231294 61.771033456898294,56.89737603426329 60.217947091383394,55.74821356922621 59.18255618098192,54.784395990282064 57.48566552239936,53.375733131193556 56.33523117756704,52.07827377636568 54.66710137744667,50.26181985143921 53.91931905335514,49.1496989686857 53.51666703261435,48.77899095532484 53.056493294774555,48.03757335030241 52.71136299124919,46.88837190310005 52.48127612227108,46.29523369384697" stroke="#4dd2ff" stroke-dasharray="1,0.5" stroke-linecap="round" stroke-linejoin="round" stroke-width="0.5"><title>2024-02-29 12.6km</title><desc>10863915171</desc></polyline><polyline fill="none" opacity="1" points="88.65752023430105,56.28583813701698 90.51901772329438,50.566490551518655 91.29464167703554,49.195689428299374 92.21314372753113,48.59560289723595 94.06239452250884,46.65763822948065 95.3850374752219,43.94871159820832 95.47076433325856,42.47853522950754 96.05044118289516,41.44331765684183 96.31170398836548,40.40256261070681 100.95728324817901,35.82617557832418 105.02726788967266,33.7112521603849 106.60300918517896,33.36976811287241 108.56656245755585,32.4774875452531 109.35443310530536,32.31775589627796 109.68509384348727,31.937701787319384 110.1831260664112,31.799999999999272 112.39569545026461,31.9707501352932 113.4325822094761,32.86855159461629 114.5878536774253,35.18179844747283 114.40007103599055,38.18878977910208 114.14289046185877,38.464142316865036 113.78365410432889,38.43660716100203 113.12233262797963,37.52793481116896 112.71002726309962,37.3406902916613 111.97930785403878,37.3737335152764 111.04855910954211,37.89140659449549 110.50970457325457,38.93223663775643 110.86077646811464,40.92019069853268 110.51378680458583,41.591994411995984 105.3905864785338,42.26929160392319 104.24347947325441,42.11511128643542 103.89648980974744,41.85630707730161 103.15352370667097,40.44661636431556 101.96151215670398,39.962022011739464 100.39393532388203,38.75050664809896 99.7162849221786,38.50269149851738 98.37323081280192,38.7229717185146 96.55663786851073,40.40806933295971 96.2831283690175,41.72965750865842 95.7932606087561,42.67676487391873 95.75652052673831,43.65688376908656 94.7645383122217,45.35275473125148 94.64615360348398,46.52550035126478 93.86236518706573,47.55506139886347 92.91120528589818,48.232242728761776 92.46624207032437,48.85986245902677 91.74776935528644,49.173668086819816 90.54351111131109,52.036325847886474 89.51478881475487,56.01062634232221 88.70650701032719,57.353639336772176 86.64906241722929,62.94530136542744 85.3427483898704,64.17798813222544 85.84486284414015,63.44608561883797 88.45749089886522,56.95184169153072 90.59249788732268,50.46739830180741 91.31505283371371,49.151646731399524 92.18048587684461,48.62863545200162 94.03381890316086,46.663143963527546 95.47076433325856,43.73397060293428 95.4585176392502,42.605182076829806 96.0830990335744,41.45983732762761 96.34844407039054,40.41908277483162 101.5124667097989,35.41862219680843 105.10483028504677,33.66718989071887 106.22336167098547,33.58457298486974 108.54615130088496,32.549091150180175 109.29319963527814,32.40588379316614 109.78306739553955,31.921177601576346 111.60374257116928,31.844064631164656 112.72227395710797,32.119467313212226 113.4040065901354,32.78593279497363 114.6572516101296,35.33050191999064 114.49396235670429,38.04009850404327 114.17963054386928,38.46964934543212 113.81222972367686,38.475156373122445 113.1509082473276,37.55547068505621 112.64471156172658,37.3406902916613 111.84459421996871,37.44532705895108 111.11795704224642,37.87488523203865 110.53419796127127,38.99832003538177 110.91384547547204,41.06336306758749 110.55460911794944,41.58098134078682 109.08092360582668,41.9223849304326 107.8685008991888,41.8893460195286 105.88861870146502,42.24726588602789 104.190410465897,42.17568220678368 103.89240757840162,41.94991733225106 103.50051337019977,40.92569733897835 103.10045469930628,40.47414993203711 102.03091008940828,40.055637354984356 100.2837150778214,38.73398569296114 99.63872252681176,38.530226602164475 98.23035271606204,38.871660079839785 96.54847340583365,40.43009621322926 96.29537506302586,41.75168355366259 95.809589534103,42.605182076829806 95.81367176544154,43.546759424982156 94.75229161820607,45.308707178581244 94.69105814817885,46.40437352289155 93.64192469495174,47.6982065163138 92.78873834583646,48.281792065667105 92.54788669703703,48.76627076000295 91.72327596726973,49.21771075588185 90.37205739520869,52.66387709744595 89.39232187470043,56.368401251875184 88.61669792095199,57.49674422929456 88.52688883156952,58.24528332767295 86.66539134257619,62.9232887057733 85.35499508387147,64.20000000000073 86.62048679788859,61.48693263421228 86.86542067801929,61.508946200436185" stroke="red" stroke-dasharray="none" stroke-linecap="round" stroke-linejoin="round" stroke-width="0.5"><title>2018-09-09 43.5km</title><desc>1834830724</desc></polyline><polyline fill="none" opacity="1" points="139.57601967616938,52.4173690942589 141.30924369749846,50.630223029464105 141.72096741135465,49.57843292184771 137.96896905105677,47.671482193447446 137.9158434105484,47.18404566265599 136.22910432466597,45.77302299957955 136.84668989547936,44.97770478773964 138.71272801804298,44.34486345827463 139.044763271173,43.96002427179337 139.07796679649618,41.94171637621184 139.8947735191614,40.983851734930795 139.7287558926182,38.71741506058606 139.87485140399076,40.906879809517704 139.14437384711346,42.035791548252746 138.89866775980045,44.32775954653334 137.4775568764162,44.69549258180632 135.47870465260348,46.320332673836674 133.45328960854386,45.65329834708609 131.1423242467863,46.670950327144965 128.21377331421536,45.29412296543887 127.48993646239978,45.92695434683628 126.75945890552248,48.11615770201024 126.40750153720728,48.218774662087526 124.92662430828204,48.0648491565953 123.4922320147598,47.33797341322861 123.69809387170244,44.79811535474437 121.53986472640827,44.533006167919666 120.78946505433123,42.514717424535775 120.1984423037502,42.50616521006668 119.80000000000291,43.28441176751585 121.28087722895725,47.7912028447754 121.86525927444745,47.38928257622683 123.62504611600889,47.37217952671563 129.1965976634674,49.15087073089671 130.7903668784711,46.92749853983332 133.75876204142696,46.13219553280578 137.80959212954622,47.65437922386627 137.86271777004004,48.424008059097105 146.26985037919076,51.16038670925991 148.8597253535554,50.801244079826574 149.97536380405654,51.95562350293767 151.50272596842842,52.02403047997359 152.1999999999971,52.34041174086087 151.03787661406386,53.61447085429245 147.68432055749872,55.41007900848126 146.38274236524012,55.940200733482925 145.60577987293073,55.78629490555977 145.599139167869,56.376265116439754 144.5432670629234,57.282584939417575 144.03857347817393,56.778125583936344 144.9815535970556,55.52978432082455 143.14871899980062,53.434907102855504 143.00262348842807,52.08388652130452 142.3518343922915,51.73330029251156 142.28542734168877,50.66442727829417 141.74088952653983,51.01501971178004 141.20299241648172,50.861101333041006 139.6689895470481,52.48577554830263" stroke="#4dd2ff" stroke-dasharray="none" stroke-linecap="round" stroke-linejoin="round" stroke-width="0.5"><title>2018-08-26 15.1km</title><desc>1801504400</desc></polyline><polyline fill="none" opacity="1" points="155.8000000000029,44.10268455109326 157.3525423728861,42.44400882207992 157.92203389829956,41.3265600170962 162.65423728813767,42.854316971810476 164.33559322034125,42.679718092887924 167.84745762712555,41.64957464328836 170.33559322034125,42.10353828456209 173.52203389831993,42.01623784388357 175.3661016949336,42.959076061848464 178.33559322034125,46.0668481065768 183.28474576270673,47.58575835746524 186.38305084747844,49.593455877031374 187.32542372882017,51.22575307776424 186.97966101695783,54.52513100552096 188.20000000001164,54.99645630129817 186.90508474578382,54.621142006046284 187.23728813559865,51.304311746418534 186.342372881365,49.60218485398218 182.38305084747844,47.23658689892545 178.8033898305148,46.2938140848928 175.55593220339506,42.89796661427317 173.57627118645178,41.789256119671336 169.4813559322065,41.7194154210265 167.36610169491905,41.34402031044738 163.10169491525448,42.8106672984286 161.9084745762666,42.592418468004325 159.8610169491585,41.492432604074565 158.17966101695492,41.00354369870183 157.45423728814058,42.5574985834719 156.00338983051188,44.03284647280816" stroke="#4dd2ff" stroke-dasharray="none" stroke-linecap="round" stroke-linejoin="round" stroke-width="0.5"><title>2018-08-22 11.4km</title><desc>1792071595</desc></polyline><polyline fill="none" opacity="1" points="42.3640000000014,104.13407344262669 44.20000000001164,101.11248717080161 38.839272727273055,98.31837707317027 38.61345454546972,97.55978005402721 36.61054545456136,96.37129843177536 36.12945454547298,95.3850995432731 37.02290909092699,94.28509562359977 39.95854545454495,93.21036606089183 40.370909090925124,92.69196247000218 40.262909090917674,89.97345533278713 41.47054545454739,88.39288987076725 41.05818181819632,86.40766000194708 41.352727272722404,84.92819247184525 41.490181818197016,88.19057547137345 40.43963636366243,89.8849444066218 40.105818181837094,93.24829791275988 37.81818181819108,93.88049307142501 34.970909090930945,96.30808088107733 32.133454545473796,95.24601933636586 28.589090909110382,96.75060279601894 25.133090909090242,94.90463972814905 24.082545454526553,94.86670857997524 23.257818181838957,95.54946678118722 22.05999999999767,98.87467745757021 21.608363636376453,99.07696764708089 17.27854545455193,97.83793304279243 17.671272727282485,93.98164388138684 14.509818181832088,93.57703995394695 13.331636363640428,90.59302935910819 12.55600000002596,90.41600864749489 11.80000000000291,91.73101126669644 14.48036363637948,99.279257378279 14.126909090904519,102.14919356483006 14.794545454569743,107.4463225087311 17.808727272727992,107.07970556728833 19.29127272727783,107.35782890202245 21.598545454544364,106.29589878155821 23.051636363656144,106.66251894093875 24.701090909104096,105.22131378071936 25.555272727287957,103.14796029218996 27.695636363641825,103.71687305418163 29.296000000002095,104.53862953350472 30.09127272729529,106.09362494582456 30.101090909098275,107.98992416870897 28.883636363665573,110.84693895983946 29.354909090907313,112.13635817862814 30.484000000025844,113.07180752815475 34.48000000002503,112.00994535286736 33.8516363636445,107.77501228004257 35.550181818180135,106.72572916114586 38.230545454556704,106.6245927873606" stroke="#4dd2ff" stroke-dasharray="none" stroke-linecap="round" stroke-linejoin="round" stroke-width="0.5"><title>2018-08-20 12.6km</title><desc>1786373833</desc></polyline><polyline fill="none" opacity="1" points="47.81220568846766,95.48783055146487 49.167037106803036,94.06546740170597 49.734601619900786,93.02814090413085 54.06151817669161,94.5526898225944 58.46777170843416,93.35820143817182 60.945526464507566,93.80613759490006 63.679600678115094,93.7275525657169 65.41891128274438,94.59198176696736 67.37792427954992,96.86300888546612 68.3665850442776,97.57808815487078 71.6804294594258,98.293158212462 75.28721039744414,100.45402823301629 76.0866829911538,101.88408504722611 75.91580335280742,105.12122044056014 77.28284045961482,105.32549935239877 78.3203239781651,104.91694077708235 80.20000000000437,101.8526556230463 78.52782068186934,104.80694372388825 77.3377660576516,105.3333562186308 75.82426068939822,105.1683617946328 76.05006592579593,101.8526556230463 75.22618195517862,100.4147404379728 71.86351478622964,98.3560210737196 68.52525899418106,97.50736643982964 65.61420229799114,94.47410585045509 63.65518930120015,93.3974942281493 61.378828404602245,93.45250408738502 58.07108683369006,92.9809892390258 54.250706347731466,94.29336229226828 53.06675456772791,94.08118432072297 51.38236956113542,93.10672692362277 49.91158410249045,92.6666437813692 49.11211150876625,94.19906107173665 47.80000000000291,95.55855483969208" stroke="#4dd2ff" stroke-dasharray="none" stroke-linecap="round" stroke-linejoin="round" stroke-width="0.5"><title>2018-08-19 13.0km</title><desc>1786373876</desc></polyline><polyline fill="none" opacity="1" points="115.98458341990045,107.69577035496332 111.40024932474626,106.37789537484059 100.86503220444138,102.50211948282958 99.4177020569332,101.33232958199369 96.63748182007839,96.91816103294695 95.54693538332504,95.826277870583 87.38803241222195,90.71761713799788 86.01475171410857,90.32762899684894 84.02888011635514,90.41342655879271 83.80000000000291,91.10760328755714 84.17697901515203,90.30422964503668 86.07533762724051,90.35102834147983 87.48227716601104,90.76441558111401 95.41903178890061,95.7326871589612 96.64421358819527,96.9025628119416 99.42443382505007,101.26994028417539 100.91215458133956,102.50211948282958 108.82871389984939,105.50449824939278 115.84994805733731,107.6567802972204 116.20000000000437,107.6567802972204" stroke="#4dd2ff" stroke-dasharray="none" stroke-linecap="round" stroke-linejoin="round" stroke-width="0.5"><title>2018-08-17 11.3km</title><desc>1780730224</desc></polyline><polyline fill="none" opacity="1" points="152.20000000000437,107.65194323267497 151.91614518146525,107.73023240979819 146.15118898623768,106.01568114657857 136.66232790989307,102.43770417187625 135.35118898623477,101.34940236142575 132.53291614518093,96.87076043201523 131.18122653316823,95.59445619023609 123.20625782226853,90.60648679253063 122.2060075093832,90.28542898123851 119.85406758448516,90.30109036905924 119.80000000000291,90.56733347287809 119.95544430537848,90.31675175372948 120.70563204004429,90.26976759019453 123.27384230285679,90.68479337184544 131.37046307884157,95.75105908100522 132.46533166456356,96.80812022872851 135.35794743428414,101.32591366289125 136.72991239048133,102.47685143128183 145.97546933667036,105.98436478542135 151.90938673340133,107.72240349568892 152.1932415519259,107.64411431056942" stroke="#4dd2ff" stroke-dasharray="none" stroke-linecap="round" stroke-linejoin="round" stroke-width="0.5"><title>2018-08-16 11.3km</title><desc>1777281008</desc></polyline><polyline fill="none" opacity="1" points="188.07670562653948,105.45337026584093 184.96792606687086,104.56581984497825 178.1779287850004,102.04590689053293 177.12992661049793,101.18380223599888 175.08676270725846,98.02092405276926 169.0233215547778,94.21500198075955 159.4151671649961,93.93439303160994 158.36716499048634,93.70480271887936 155.8000000000029,92.54152891520425 158.87355259581818,93.89357705314615 168.99690133188415,94.22010394705649 174.91503125849704,97.8882828515525 177.23560750203615,101.29092847565335 178.15150856210676,102.0510080572385 184.20614297364955,104.3362783779412 188.01946181028325,105.45847108479211 188.20000000000437,105.4074628719718" stroke="#4dd2ff" stroke-dasharray="none" stroke-linecap="round" stroke-linejoin="round" stroke-width="0.5"><title>2018-08-14 16.1km</title><desc>1772922998</desc></polyline><polyline fill="none" opacity="1" points="11.80000000000291,152.96063776359733 13.844435368606355,150.31956527335933 17.450316520320484,151.68271393686882 18.61478456198529,151.8531053485167 20.791545844404027,151.35896892546225 21.57888503164577,150.62627641512518 23.054318970796885,150.1832487085194 24.715009189312696,150.31104549708834 25.608209107609582,149.07566517061787 26.16397794567456,147.0393622364063 38.55629977537319,148.34294485568898 44.19999999999709,147.83173935158993 38.3578109046357,148.4366653936413 26.144129058608087,147.09048365551644 24.754706963445642,150.39624320537405 22.842597508672043,150.31956527335933 18.972064529312775,151.72531183500905 17.63557279968518,151.49528282676692 14.06277312641032,149.9106146523336 13.288666530526825,151.503802435338 11.899244435378932,152.92656014709064" stroke="#4dd2ff" stroke-dasharray="none" stroke-linecap="round" stroke-linejoin="round" stroke-width="0.5"><title>2018-07-17 10.5km</title><desc>1708429366</desc></polyline><polyline fill="none" opacity="1" points="47.80000000000291,146.08820837951134 49.36907391673594,144.49313456389064 49.96779949023039,143.3499733229437 54.74384027188353,144.92735312934747 56.33355989804841,144.7767062132225 59.78139337299217,143.62468839531357 62.63738317757088,144.07663637458973 66.0645709430828,144.12980651051475 67.83322005099035,145.09572278301493 71.21911639763857,148.25921575719985 75.69923534410191,149.61494951736677 78.85114698385587,151.6795072697496 79.73891248938162,153.48704699418522 79.36040781649353,156.6323961067137 80.19999999999709,157.0576706195825 79.49116397621401,156.9513522622001 79.35352591334959,156.64125602186687 79.62880203909299,153.20351480244062 78.87867459643167,151.75039216376172 74.79082412914431,149.27823406934476 71.12276975360874,148.28579905432707 67.7781648258242,144.79442939864748 65.80994052677124,143.73989113133212 62.47909940526006,143.77533808437147 59.45794392522657,143.31452612900102 55.05352591333212,144.7767062132225 53.580798640614375,144.47541129314413 51.92225998302456,143.46517656461583 50.24995751911774,142.9423293804175 49.40348343245569,144.56402759665798 47.85505522513995,146.21226797251074" stroke="#4dd2ff" stroke-dasharray="none" stroke-linecap="round" stroke-linejoin="round" stroke-width="0.5"><title>2018-07-12 11.4km</title><desc>1700674590</desc></polyline><polyline fill="none" opacity="1" points="83.80000000000291,146.06337806436932 85.3738925743528,144.44743031691178 86.06030387330975,143.25999480347673 90.7542478065443,144.92954060912598 92.50147656751506,144.73312574985175 96.18313717098499,143.58140812708734 98.71384549538197,144.08138115182373 102.09043441043468,144.04566892437288 104.00406591054343,145.01881988837704 106.15343462444434,147.55429864971666 107.35292103573738,148.43812115756737 111.28418574790703,149.32193127885694 115.24318424994999,151.75011350712884 116.06133105071785,153.59796895582258 115.52745559597679,156.88291164053226 116.20000000001164,157.13284592811397 115.51358870104013,156.8918378821254 115.95732933875115,153.20519261837035 115.06291461587534,151.66977073773887 111.04844853412942,149.2683673816864 107.58172480204666,148.27742707749712 106.24356944147439,147.2329055756927 104.18433554461808,144.8670450384525 102.00029959340463,143.67068931509857 98.679178258084,143.70640175492008 95.59379413652641,143.25106663219776 91.18412154931866,144.7152698232385 89.53396105286083,144.3581502287052 88.03633640058979,143.38498906844325 86.2544404023065,142.86715407188603 85.51256152363203,144.46528631942783 83.94560239675047,146.22407778646448" stroke="#4dd2ff" stroke-dasharray="none" stroke-linecap="round" stroke-linejoin="round" stroke-width="0.5"><title>2018-07-10 11.3km</title><desc>1694617878</desc></polyline><polyline fill="none" opacity="1" points="132.8542694497155,149.44664237951656 131.76812144212454,149.3252530007776 131.41563567362027,148.7869127310296 130.80903225806105,148.39634727657904 130.98527514231682,147.59409188473364 130.18193548387353,147.103229742017 129.93601518026117,146.7390375231589 130.28440227703686,146.2217728928481 131.56728652751917,145.76784087439228 131.68204933586094,145.57782117857278 131.65745730550407,144.44296115703764 132.1574952561641,143.6934067508446 131.9853510436442,142.90160755304169 132.1574952561641,142.2470408468762 132.17388994306384,143.7250783688396 131.70254269449651,144.44296115703764 131.73533206831053,145.53559444794155 131.5467931688836,145.83645885979786 130.68607210626215,146.047590330174 129.2105502846316,147.23518256622265 128.12440227703337,146.95544202427845 127.28827324477606,147.18767960331752 126.53821631878236,147.73132100492512 125.62831119544717,148.8238578999808 124.56265654647723,148.52829552297408 124.12819734344521,148.19578504743913 123.00106261859037,148.13244938244316 122.09935483870504,147.715486901463 122.19772296014708,146.10565127485097 120.87795066412946,145.9103550104919 120.36971537001227,144.61715121935413 120.12379506640718,144.6065942690475 119.91066413662338,144.8599602508184 119.80000000000291,145.40363560632613 120.92303605312918,148.50718383494677 120.72220113851654,149.54164248712914 120.98451612902863,151.7213006742495 122.87810246679146,151.68963585016536 123.89047438329726,151.23577041609678 124.44789373813546,151.4046512231398 125.37419354838494,150.08524955746907 126.05457305502932,150.0324725194696 126.96857685009309,150.39135490431727 127.43992409867496,151.4415937976919 126.9521821631788,152.882325650884 127.0013662239071,153.45227013487238 127.58747628083074,154.05914588665473 128.15719165085466,153.79001090276506 129.30481973435235,153.75307065528614 130.20652751422313,157.19891049119178 130.62049335862685,157.75295915312017 131.70254269449651,157.0036723343801 133.3420113851971,156.7028980382238 133.55924098670948,156.9139679736254 135.40774193548714,157.50495743651118 136.2356736242873,157.55244725459488 138.08827324478625,157.1461435225865 138.68258064515976,157.3149975592496 139.371157495254,155.38368387048104 139.6703605313087,153.27812135586646 140.01055028463452,152.7978886899873 140.9614421252336,152.13821834946793 143.56409867173352,151.62630612133216 144.57647058823932,150.80828745386316 145.12569259962765,151.4099287360259 146.11757115749788,152.05377970318295 148.40872865275014,152.68178755648114 149.4743833017128,153.3361710392528 149.79817836812435,152.6554008847961 149.71210626186075,151.07216640466868 150.06049335863645,149.78969718223743 149.999013282737,149.5627535892927 149.2489563567433,149.45192016963483 148.86368121442501,149.12469576979493 148.87597722960345,148.71302228326022 149.2489563567433,148.31190015372704 149.12189753320854,147.85271557471424 152.20000000000437,147.53075519731283 148.6751423149908,147.9318857333019 142.42466793170024,147.1771233811305 141.85905123339762,147.277407371319 141.56804554080009,147.66798455069875 141.03111954459018,147.4568622592924 140.73191650854278,147.77882327498446 140.13351043643343,149.36747543823003 139.9490702087278,150.5021855307641 139.4572296015249,151.2146602614157 136.33814041746518,152.9614851280494 135.70694497154182,152.877048346425 135.76022770398413,153.23590334754408 134.74375711574976,154.10136296274868 133.14937381403433,156.7556656340712 131.6902466793108,157.03005592882255 130.70246679316915,157.73712930558395 130.21882352940884,157.26750743873708 129.26383301707392,153.72668474183592 128.2186717267541,153.76890219440975 127.60387096774502,154.05914588665473 127.07514231498499,153.60530929941888 126.86611005692248,153.04064443711832 127.35385199240409,151.8215724397087 127.36204933586123,151.06688884397227 128.49328273244464,150.52329608890068 129.0875901328327,150.4546867311874 129.40318785577983,148.32773400384394 129.85404174572614,148.47551628048313 129.95650853889674,148.86608090536902 130.31719165085815,149.03497244867685" stroke="#ff6e00" stroke-dasharray="none" stroke-linecap="round" stroke-linejoin="round" stroke-width="0.5"><title>2018-07-08 29.0km</title><desc>1691699201</desc></polyline><polyline fill="none" opacity="1" points="156.18017398340453,152.73474402122156 157.67465102164715,151.1732992725847 158.12037224357482,150.17732936654647 161.6402589520585,151.5362333219673 162.91843010317825,151.71347938022882 165.4157798907545,151.11421677634644 165.74351608335564,150.48962680588738 167.20521950232796,150.02540029094234 168.92255715152714,150.21109133075515 169.8074448715197,148.83527580176087 170.40392474205873,146.9360917648919 182.54982803965686,148.25286579674503 188.20000000001164,147.72953601077097 182.5236091442348,148.26974732625604 170.3580416751065,146.96141461674415 168.92255715152714,150.27017472211082 166.47109043091768,150.320817582382 163.10196237103082,151.56155421970834 161.92211207769287,151.32522542258084 158.42188954076846,149.78906540370735 156.5210196237167,152.65034264799033 155.8000000000029,153.06390823511174" stroke="#4dd2ff" stroke-dasharray="none" stroke-linecap="round" stroke-linejoin="round" stroke-width="0.5"><title>2018-07-06 10.5km</title><desc>1691698946</desc></polyline><polyline fill="none" opacity="1" points="15.48203898050997,192.14235266604737 13.60215892054839,190.79120031398998 13.06782608696085,190.54723784563976 12.771514242886042,190.70362419831508 12.873523238384223,190.4408948095479 13.45643178409955,190.69111331048407 12.101169415291224,189.18978104319467 11.80000000000291,187.6696301299162 11.921439280362392,188.64553549416087 12.441199400294863,189.6589528583645 14.54938530734944,191.41673894799533 14.622248875552032,191.5793775418715 13.976191904053849,191.90465293320813 14.661109445281909,191.5418456118132 15.477181409289187,192.09231072333205 44.19999999999709,214.33036987008018 23.16185907046747,198.00312311361267" stroke="#ffa300" stroke-dasharray="none" stroke-linecap="round" stroke-linejoin="round" stroke-width="0.5"><title>2018-07-01 22.1km</title><desc>1691699449</desc></polyline><polyline fill="none" opacity="1" points="47.80000000000291,204.53832446337765 50.10994371480774,204.11561700485618 49.78168855533295,201.8454937480201 52.89403377108101,202.45608320668543 49.854634146322496,201.42277599349472 49.78168855533295,200.51471016660798 51.49590994368191,199.1995671247787 59.033621013120865,199.48138480792113 60.79647279548226,198.43239312520018 68.61380863038357,198.96471850662056 69.93898686677858,199.7318888120717 72.35834896810411,198.30713972175727 73.87804878049064,200.02936157980002 78.57088180111896,197.7591544131501 79.13013133207278,197.9470353964134 78.63166979361267,199.04300143477303 79.16660412757483,198.32279640495835 78.60735459662101,197.82178144305362 79.09365853658528,198.0879459242642 78.49793621011486,200.12330018221837 80.19999999999709,202.92576511093648 77.95084427765687,200.46774104164797 79.03287054407701,198.33845308591117 78.59519699809607,197.46167553661508 79.25170731706021,198.35410976469575 78.47362101309409,200.1076437540396 79.49485928704962,202.6752683436498 78.20615384614212,202.6752683436498 79.25170731706021,199.5440108621333 78.87482176357298,197.5556163209476 79.38544090055802,198.02531904514763 78.19399624766083,200.53036653714662 78.08457786115468,199.7475452934741 79.22739212006854,198.30713972175727 78.68030018762511,197.80612468887557 74.230619136928,200.2642079362413 72.39482176357706,198.30713972175727 71.16690431517782,199.46572828881472 69.70799249529955,199.71623232845013 68.74754221383773,198.94906191433984 60.79647279548226,198.35410976469575 60.21290806750767,198.40107978764718 59.6536585365684,199.5440108621333 51.751219512167154,199.18391056572727 49.806003752339166,200.483397418815" stroke="#4dd2ff" stroke-dasharray="none" stroke-linecap="round" stroke-linejoin="round" stroke-width="0.5"><title>2018-06-28 10.0km</title><desc>1691699360</desc></polyline><polyline fill="none" opacity="1" points="91.75667025696748,201.8322925427019 92.88336667179829,200.65111238191093 93.19744576088124,199.87434126531298 90.43554392983788,198.4491563440606 90.36076319433778,198.0447038134771 89.10444683796959,196.94688589871657 89.5830435451644,196.37549646490515 91.21824896138423,195.63717360985902 91.20827819664555,194.14765090133733 91.81150946299022,193.32582431722767 91.75168487460178,191.59223500094595 91.8912755808633,193.2744596609882 91.29302969687706,194.17333274200428 91.13349746113818,195.86188183872218 90.03172795815772,196.1893118352964 88.35663948301226,197.43480825398 86.85603939067369,197.26146801866344 85.8290506231715,197.58246793165017 84.38328973689204,198.9884207722098 83.80997076474887,200.65753192247575 85.53491306355863,201.44712847999472 85.97861209416442,202.10832477500662 86.04342206493311,203.03911875272388 85.47010309278994,204.61179619657923 85.77421141714149,205.49760682523993 86.2627788890677,205.88915528406142 86.99064471457677,205.57463301867756 88.37159563010209,205.58105186224202 89.4982920449329,209.7980357032102 89.94697645792621,210.36283785698834 91.20329281428712,209.5220502744487 92.61914140637964,209.20755320367607 96.55759347591811,210.13178328058348 98.71626404063136,209.6953436468284 99.77815048469347,209.83654516439128 101.29370672412188,204.43848339743636 102.83917525772995,203.4563650231794 105.7306970303107,202.89147684507407 106.93715956301457,201.94142176561945 107.83452838897938,202.94924982272278 108.81664871519024,203.4820415913382 111.15977842744906,204.05334147217945 112.8996768733632,204.9969333786612 113.26859516849072,204.12395107005432 113.14396060932631,202.377936030829 113.60760116941674,200.86295674046778 113.62255731652112,199.5019999785618 114.00144637637277,199.0911370789181 114.66450223111315,198.87286464901626 114.71435605478473,198.15384215336599 116.20000000000437,197.92914528485562 111.91755654715962,198.44273649080424 102.5998769041471,197.40270826039705 101.34854593014461,201.47922561020096 100.69047545776994,202.44854823768037 97.02123403600854,204.5219303834201 96.19366056317813,204.44490240180312 96.16873365133506,204.92632514016077 95.06696414833277,205.850642470803 93.06782581937296,209.19471654223526 91.25314663795143,209.52846855931057 89.92703492845612,210.4077649990577 89.42351130944007,209.70818016659177 88.32672718880349,205.58105186224202 87.14020618557697,205.58747070486788 86.27773503615754,205.93408685817485 85.56981074011856,205.3628106718752 85.39532235728984,204.5347683676373 85.9835974765374,203.08405315093842 85.9088167410373,202.04413138257223 85.39532235728984,201.43428962157122 83.80000000000291,200.8116006232376 83.84486844130151,200.2145814915275 84.8569010617066,198.23088082336108 85.8290506231715,197.5439480621135 86.9657178027337,197.17158763570478 91.09361440221255,198.5069349824771 93.2173872903586,199.72668905195678" stroke="#ff8700" stroke-dasharray="none" stroke-linecap="round" stroke-linejoin="round" stroke-width="0.5"><title>2018-06-25 25.8km</title><desc>1691700089</desc></polyline><polyline fill="none" opacity="1" points="124.58746268658433,207.91194819456723 130.39044776116498,201.12464820226887 128.28686567160184,199.9726544721343 123.78955223879893,199.94151942266035 119.79999999998836,195.4268905896024 124.32149253727403,200.15946467616595 130.8014925372554,200.65762444445863 132.7116417910438,197.9800024205033 145.7441791044257,203.17954095330788 147.3399999999383,200.81329914064554 152.10328358205152,198.66497859991796 152.19999999998254,195.11553346028086 151.18447761193966,194.92871897110308 151.45044776116265,196.17414590116823 150.314029850706,194.3371387082443 149.66119402981712,194.86644743938814 150.12059701493126,198.78951949423936 151.08776119403774,195.17780492146267 150.24149253725773,194.21259529214876 149.39522388053592,195.0221262355335 150.26567164171138,198.69611383011215 151.1119402984914,195.08439772312704 150.38656716409605,194.15032355763833 149.41940298504778,194.71076853301201 150.0480597014248,198.72724905586801 151.1602985074278,198.16681431733014 151.18447761193966,195.27121208011522 150.26567164171138,194.30600286075787 149.32268656714587,195.053261981564 150.43492537309066,198.75838427730196 151.01522388050216,194.83531166698958 150.14477611938491,194.15032355763833 149.39522388053592,195.053261981564 150.43492537309066,198.69611383011215 151.18447761193966,194.990990485152 150.3623880597006,194.11918768375472 149.4677611940424,194.80417589010904 150.4107462686079,198.72724905586801 151.18447761193966,195.053261981564 149.99970149248838,194.36827455116145 149.27432835820946,195.39575489657 149.44358208950143,197.9800024205033 150.67671641791821,198.63384336534364 150.99104477610672,194.83531166698958 149.99970149248838,194.15032355763833 149.34686567159952,195.17780492146267 150.55582089547534,198.5715728829382 151.08776119403774,194.71076853301201 150.14477611938491,194.08805180541822 149.2501492536976,194.92871897110308 149.97552238803473,198.69611383011215 151.08776119403774,198.29135549384227 151.32955223880708,196.3298237715062 151.2086567163642,197.23275324574206 150.9426865671412,194.71076853301201 149.68537313432898,194.52395369997248 149.75791044771904,198.3847613298276 150.99104477610672,198.32249077694723 151.2086567163642,196.08073912620603 150.70089552237187,194.39941038980032 149.5644776119152,194.55508951657976 149.7820895522018,198.4470318651729 151.08776119403774,198.04227307035762 151.1119402984914,194.89758320740657 149.41940298504778,194.58622532863228 149.97552238803473,198.63384336534364 151.08776119403774,198.22908491443377 151.18447761193966,195.2089406453888 150.3623880597006,194.21259529214876 149.37104477608227,194.89758320740657 150.12059701493126,198.47816712626081 151.13611940294504,197.9800024205033 151.18447761193966,195.27121208011522 149.37104477608227,194.52395369997248 149.87880597016192,198.4470318651729 151.13611940294504,197.85546106770926 151.13611940294504,194.83531166698958 149.32268656714587,194.64849693968426 152.19999999998254,195.86278983006196 151.90985074624768,198.94519551294798 147.36417910442105,200.75102927532862 146.42119402982644,202.24550117415492 139.36089552237536,198.19794961805746 133.14686567164608,196.48550153156975 130.36626865671133,201.87188415165292 125.19194029847858,207.44493885121483" stroke="#4dd2ff" stroke-dasharray="none" stroke-linecap="round" stroke-linejoin="round" stroke-width="0.5"><title>2018-06-19 10.5km</title><desc>1691699679</desc></polyline><polyline fill="none" opacity="1" points="188.1999999999971,213.563435656637 162.04656872610212,193.575300368233 155.8000000000029,188.43656434335935" stroke="#4dd2ff" stroke-dasharray="none" stroke-linecap="round" stroke-linejoin="round" stroke-width="0.5"><title>2018-06-17 10.6km</title><desc>1691699994</desc></polyline><polyline fill="none" opacity="1" points="11.80000000000291,252.9310552176612 13.423707093810663,251.17442088388634 14.039084668198484,249.95238739952765 17.976018306639162,251.54675480915466 19.414370709389914,251.79497628378886 24.64878718536056,250.37246390786459 27.710846681933617,250.89755586306273 30.454096109853708,250.66842533094314 33.011990846687695,251.69950659396272 35.666270022891695,254.70673689380055 36.76356979405682,255.422724341719 40.448421052642516,256.19598224703077 43.139771167043364,257.6374640543072 43.703249427926494,256.4728255144437 43.5401372997585,253.63751481869986 43.97757437071414,252.10047838280298 42.79130434781837,251.53720781110314 44.06654462243023,251.92863362241042 44.20000000001164,251.17442088388634 44.11844393593492,250.85936749511893 42.7097482837562,250.6015954457398 42.13885583524825,250.10514279627387 42.0647139588109,249.34136235182814 42.71716247139557,248.49164644059783 42.40576659036742,247.7755853920753 28.04448512586532,246.3625359456928 26.168695652173483,250.11468999706995 24.144622425636044,249.98102906276472 19.710938215110218,251.54675480915466 18.294828375292127,251.30807945256674 14.298581235707388,249.55140283652145 13.431121281450032,251.25079724127863 11.82965675057494,252.9787892076347" stroke="#4dd2ff" stroke-dasharray="none" stroke-linecap="round" stroke-linejoin="round" stroke-width="0.5"><title>2018-06-14 10.8km</title><desc>1691699987</desc></polyline><polyline fill="none" opacity="1" points="60.691153512569144,251.25958401854587 61.08456201213994,250.2011795637809 57.17155247181654,248.26524912654713 57.024024284488405,247.70436112373136 55.28178664353618,246.14832346425828 55.956201214226894,245.38838432059129 58.24640069383895,244.29369418732676 58.218300086737145,242.194731711621 59.089418907184154,241.09093929009396 58.801387684303336,240.17712949274573 58.98404163053783,238.81091422363534 59.131569817865966,241.11808195545746 58.37285342585528,242.34853733823547 58.0356461405172,244.66462435032008 56.3987857762404,245.1893511461967 53.98915871640202,246.96253394366795 52.02211621856259,246.627804224976 50.244752818747656,247.3515419537507 48.7764960971399,248.76280694278103 47.80000000000291,251.32290680609003 48.01075455333921,251.71188826709113 50.167476149174036,252.49889002674172 50.778664353856584,253.22256125044078 50.95429314831563,254.7512897647248 50.12532523852133,256.958383570789 50.52575888983847,258.1794887803553 51.319601040755515,258.80360020972876 52.35932350390067,258.2880303363636 54.19991326973832,258.2880303363636 55.85784908932692,264.3117976627109 56.51821335645218,265.18908577636466 58.183174327845336,263.9590701815323 59.953512575884815,263.45258629109594 65.52445793581137,264.79114214496803 69.18456201214576,264.07664622487937 70.32263660017634,264.34797473019717 71.56608846486779,260.7301666069179 71.98759757155494,257.43778321309946 72.416131830003,256.77747711068514 74.19349522984703,255.4930265161238 77.78334778838325,254.95933874677576 80.20000000001164,253.02355248100503 78.77389418907114,251.62142767355544 76.764700780579,250.87964597521204 74.14431916737522,251.06961527928797 71.20780572420335,250.6444451018251 67.50555073721625,251.87471701270988 65.73521248917677,251.9109011220644 62.72142237641674,250.95201530049962 57.93026886382722,248.51855177175457 52.94943625325686,246.68208483902708 51.08074588030286,246.8992068341031 49.52818733737513,247.93957282122574 48.3830875975691,249.47747411675664 47.821075455343816,251.58524340023723 50.05507372072316,252.4174765011703 50.76461405029113,253.2496987619088 50.996444058968336,254.57942270336207 50.13235039028223,257.1935612032321 50.95429314831563,258.62269897349324 51.270424978327355,258.82169030519435 52.26799653080525,258.3332559303162 54.08751084128744,258.07094703994517 52.93538594969141,253.17733203912212 53.51144839548215,254.9412475578356 54.91647875108174,254.23568719379546 56.66574154380942,254.190458699617 56.8062445793621,253.38538614620484 59.11049436252506,253.0145066131372 61.07753686037904,250.27354965762788 60.83165654813638,251.3590912279542 59.15967042498232,253.14114864696603 57.12940156114928,253.34920287191198" stroke="#ffaa00" stroke-dasharray="none" stroke-linecap="round" stroke-linejoin="round" stroke-width="0.5"><title>2018-06-10 21.1km</title><desc>1691700350</desc></polyline><polyline fill="none" opacity="1" points="95.13014769765141,251.04046326840762 96.7065160729835,249.3549852147844 97.10764552562614,248.34911425982136 93.34265855778358,246.25576456013368 91.28071242399164,244.42516021723713 92.00556038228387,243.40108643215353 94.16602953954134,242.58544071963843 94.222328410091,240.77285746904818 94.13788010427379,242.63981742392934 92.4841007819341,243.156393810008 90.08436142487335,245.03234666948993 87.86759339705168,244.6698479880506 85.41859252825088,245.9657713231427 84.40521285840077,247.42478647085227 83.80000000000291,249.4727888870766 86.11529105127556,250.5239505172358 86.88940052129328,251.62040244259697 86.91754995656083,252.94336901742645 86.09417897480307,255.06368307108642 86.52345786274236,256.32315261259646 87.2553431798442,256.8758616380728 88.47280625543499,256.3503351352556 90.18288444832433,256.32315261259646 91.72406602955016,262.0221690540275 92.46298870547616,263.2271425309591 94.25751520418271,261.9496887232817 95.79165942658437,261.5510454373434 101.29487402259838,262.83756712079776 105.08097306691343,262.1490094353867 106.33362293658138,262.475169262143 106.72771503039985,261.21582075284823 107.06550825369777,261.21582075284823 107.98740225890651,255.6073420280445 108.56446568202227,254.74654654714686 110.63344917462382,253.41455598812172 113.90582102521148,252.9161850478995 116.20000000001164,251.0495248584266 115.05291051258973,249.75370446133456 112.66724587316276,248.9109540395075 110.09860990442394,249.11031535641814 107.23440486531763,248.60284896461962 103.00495221547317,250.0164953339845 101.02745438749844,249.8080750752415 95.79869678542309,247.7057110345122 93.97602085143444,246.56388093456917 90.2743701129657,245.20453282387462 89.61285838403273,245.53077900377684 89.14135534320667,246.4460719077324 87.14274543875945,248.43973391272448 86.8471763683774,249.4727888870766 89.77471763682843,249.91681616448477 90.16177237186639,250.88641604196164 91.07662901825097,250.65987532955478 91.75221546481771,251.167325411785" stroke="#4dd2ff" stroke-dasharray="none" stroke-linecap="round" stroke-linejoin="round" stroke-width="0.5"><title>2018-06-04 16.1km</title><desc>1691700458</desc></polyline><polyline fill="none" opacity="1" points="123.30430194805376,256.1532166921679 124.84277597402979,254.50236054495326 125.2438311688311,253.4948926038669 121.6540584415634,251.61536922116647 121.43709415585909,251.13277936042869 120.07613636365568,250.29458771257487 119.80000000000291,249.7103865845056 120.9111201298947,248.68590415665312 122.56136363638507,248.0593525328004 122.70600649352127,245.89177193758587 124.79017857144936,245.72242639366232 124.33652597402397,244.51159177690715 124.7441558441642,244.3930472096108 124.94797077923431,243.690242446708 125.32272727273812,243.58863143584676 128.0906655844301,243.690242446708 129.52394480521616,244.12208731590363 130.85202922078315,244.04587962450023 133.3569805195002,244.47772192454067 138.35373376622738,246.05264975997852 137.6568181818293,250.20145458190746 150.56948051947984,251.46297284385219 150.83246753245476,252.23341721372344 150.299918831166,252.95305408631248 150.3327922077733,253.61341912508215 150.74042207791354,254.04519232251187 152.0882305194682,254.33303938864265 152.1999999999971,254.82406942098896 151.7200487013033,256.63576603454203 151.72662337661313,259.5648416437616 151.2269480519608,260.4113685641496 148.73514610387792,259.0823159372485 145.41493506493862,258.2527012349092 142.0749999999971,254.85793341251338 140.24066558442428,253.96053115700488 137.43327922078606,254.0028617547432 134.50097402598476,253.53722353127523 130.3260551948042,255.00185516252895 129.18206168831966,254.78173940459237 127.14391233764763,253.68114846028038 125.58571428572759,253.21550773142735 124.92824675326119,254.67168122175644 123.37004870129749,256.33946426822877" stroke="#4dd2ff" stroke-dasharray="none" stroke-linecap="round" stroke-linejoin="round" stroke-width="0.5"><title>2018-03-01 13.5km</title><desc>1691700947</desc></polyline><polyline fill="none" opacity="1" points="165.287722398818,252.8104483088464 167.28884259273764,250.64967084119417 167.7823924163822,249.21682428975328 162.70331604969397,246.60528118638467 162.73023694916628,245.99282756418688 161.55469100562914,244.88346590347646 160.86372125256457,244.9181336836773 160.4060659615934,243.95898633221077 161.33035017672228,242.9767153115463 164.01346649057814,242.01754513983178 164.35446455051715,238.75859357551235 165.8710085539933,236.8170286424065 167.037580864373,236.7592432637466 167.36960529116914,235.8000000000029 178.0841232802195,236.80547156994726 185.7745268955041,239.1515237145577 181.82612830658036,253.14553701696423 180.32753156940453,254.58986915153946 171.94615820105537,259.188452428687 167.28884259273764,266.22447663174535 164.20191278685525,266.6634859560727 161.9764517640142,268.1999999999971 161.2047193125327,267.5530502431502 160.37017142896366,265.3002387581437 158.22547310451046,255.86086028745922 159.02412645546428,254.65919645112444 162.3982125223556,254.17390411736415" stroke="#4dd2ff" stroke-dasharray="none" stroke-linecap="round" stroke-linejoin="round" stroke-width="0.5"><title>2017-12-12 10.6km</title><desc>1691701873</desc></polyline></svg>