<?xml version="1.0" encoding="utf-8" ?>
<svg baseProfile="full" height="200mm" version="1.1" viewBox="0,0,200,200" width="200mm" xmlns="http://www.w3.org/2000/svg" xmlns:ev="http://www.w3.org/2001/xml-events" xmlns:xlink="http://www.w3.org/1999/xlink"><defs /><rect fill="#1a1a1a" height="200" width="200" x="0" y="0" /><rect fill="#1a1a1a" height="200" width="180" x="10" y="0" /><text alignment-baseline="middle" fill="#e1ed5e" style="dominant-baseline: central; font-size:9.0px; font-family:Arial;" text-anchor="middle" x="100.0" y="100.0">2026</text><line stroke="#e1ed5e" stroke-width="0.3" x1="100.0" x2="100.0" y1="15.0" y2="10.0" /><path d="M 100.0 14.0 a86.0,86.0 0 0,1 42.46469731375804,11.215312516191453" fill="none" id="id109" stroke="none" /><text fill="#e1ed5e" style="font-size:6.75px; font-family:Arial;" text-anchor="middle"><textPath startOffset="22.20632615414155" xlink:href="#id109">January</textPath></text><line stroke="#e1ed5e" stroke-width="0.3" x1="143.23703022742887" x2="145.7803849466894" y1="26.81831364943548" y2="22.513508569990506" /><path d="M 143.74570117128098 25.957352633546492 a86.0,86.0 0 0,1 28.547481713284135,27.462654790039103" fill="none" id="id110" stroke="none" /><text fill="#e1ed5e" style="font-size:6.75px; font-family:Arial;" text-anchor="middle"><textPath startOffset="19.985693538727396" xlink:href="#id110">February</textPath></text><line stroke="#e1ed5e" stroke-width="0.3" x1="172.23445277983987" x2="176.4835382374775" y1="55.19839476539836" y2="52.563006222186495" /><path d="M 173.08426987136738 54.67131705675599 a86.0,86.0 0 0,1 12.851231095245387,41.99856678651699" fill="none" id="id111" stroke="none" /><text fill="#e1ed5e" style="font-size:6.75px; font-family:Arial;" text-anchor="middle"><textPath startOffset="22.20632615414155" xlink:href="#id111">March</textPath></text><line stroke="#e1ed5e" stroke-width="0.3" x1="184.98032266829074" x2="189.97916517819016" y1="98.17113171792111" y2="98.06355123074" /><path d="M 185.9800911702706 98.14961562048488 a86.0,86.0 0 0,1 -9.607161424134198,41.387399972396054" fill="none" id="id112" stroke="none" /><text fill="#e1ed5e" style="font-size:6.75px; font-family:Arial;" text-anchor="middle"><textPath startOffset="21.466115282336823" xlink:href="#id112">April</textPath></text><line stroke="#e1ed5e" stroke-width="0.3" x1="174.80103733775053" x2="179.2010983576182" y1="140.37084112569926" y2="142.7455964860345" /><path d="M 175.68104954172406 140.8457921977663 a86.0,86.0 0 0,1 -30.038265399797805,32.042727171017184" fill="none" id="id113" stroke="none" /><text fill="#e1ed5e" style="font-size:6.75px; font-family:Arial;" text-anchor="middle"><textPath startOffset="22.206326154141568" xlink:href="#id113">May</textPath></text><path d="M 118.12598468904814 110.60418214915192 l 16.196003938810428 9.475092184056502 a39.764005848494385,39.764005848494385 0 0,0 -0.3507168734280334,0.5878216530622526 l -16.030506189684168 -9.75247593100486" fill="red" stroke="none" /><line stroke="#e1ed5e" stroke-width="0.3" x1="143.8653032363475" x2="146.44561519142675" y1="172.8068346515853" y2="177.08958963109032" /><path d="M 144.38136562736335 173.6633856474863 a86.0,86.0 0 0,1 -40.68145358897372,12.25698825130547" fill="none" id="id114" stroke="none" /><text fill="#e1ed5e" style="font-size:6.75px; font-family:Arial;" text-anchor="middle"><textPath startOffset="21.466115282336833" xlink:href="#id114">June</textPath></text><path d="M 110.8373102113329 117.98757091392108 l 8.810692484929406 14.623827571871908 a38.07292110084951,38.07292110084951 0 0,0 -0.5642626804945632,0.333376337570078 l -8.557661933406461 -14.773322481735736" fill="red" stroke="none" /><path d="M 110.5260780823613 118.17145234162733 l 31.578234247083873 54.514357024881974 a84.0,84.0 0 0,0 -1.2574049323152037,0.7139873368214862 l -30.635180547847472 -55.049847527498095" fill="red" stroke="none" /><path d="M 110.21172684928248 118.3499491758327 l 18.507396494403928 33.256841870301145 a59.05970646480724,59.05970646480724 0 0,0 -0.8925811223649291,0.4867063956218481 l -17.93219256017035 -33.570488917682766" fill="red" stroke="none" /><path d="M 109.57404056367764 118.69057910512821 l 9.812899860744828 19.15688364573847 a42.52392145249949,42.52392145249949 0 0,0 -0.6543542403514496,0.32810680028341616 l -9.481691712710617 -19.32295828693119" fill="red" stroke="none" /><path d="M 104.83641907484287 120.43548508189849 l 1.4414106043233452 6.090440974140984 a27.258684829079602,27.258684829079602 0 0,0 -0.4575303407762398,0.10413241596977071 l -1.3363601141542434 -6.114350123688439" fill="red" stroke="none" /><path d="M 104.48393922423573 120.51570834832081 l 3.0747983971638124 14.068359090404295 a35.40045529418297,35.40045529418297 0 0,0 -0.5964277786842626,0.12498723998195806 l -2.832179157050172 -14.119202311112794" fill="red" stroke="none" /><path d="M 103.7750983002368 120.6578951692458 l 2.471689908925939 13.525452046181629 a34.7494401362181,34.7494401362181 0 0,0 -0.5893356592992621,0.10246355851589645 l -2.238505278154627 -13.565994183218532" fill="red" stroke="none" /><path d="M 103.41894727170886 120.7198165907248 l 2.449092839374058 14.842216159749267 a36.04291980529696,36.04291980529696 0 0,0 -0.6130113488231601,0.09573976547104712 l -2.1932456269423812 -14.88217423256742" fill="red" stroke="none" /><path d="M 103.06178313531738 120.77559828337769 l 1.729481617772878 11.735323418198577 a32.862079176768894,32.862079176768894 0 0,0 -0.5603319517788362,0.07765690276017398 l -1.5272210748072115 -11.763354886451353" fill="red" stroke="none" /><path d="M 102.70371172650421 120.8252237178851 l 2.7615579769130267 21.27078198291582 a42.449297625437254,42.449297625437254 0 0,0 -0.7254232775475995,0.08783865639493298 l -2.395007276314047 -21.315166168036104" fill="red" stroke="none" /><path d="M 101.26447882468166 120.96189622390904 l 1.1677314859088472 19.35806732957726 a40.3932557235661,40.3932557235661 0 0,0 -0.6944022510396604,0.035892664633597034 l -0.8343411664557072 -19.375299800973057" fill="red" stroke="none" /><line stroke="#e1ed5e" stroke-width="0.3" x1="102.19456741930631" x2="102.32365962044197" y1="184.97166512339345" y2="189.96999836594603" /><path d="M 102.22038585953345 185.97133177190398 a86.0,86.0 0 0,1 -42.740103519485714,-10.115201625700543" fill="none" id="id115" stroke="none" /><text fill="#e1ed5e" style="font-size:6.75px; font-family:Arial;" text-anchor="middle"><textPath startOffset="22.20632615414155" xlink:href="#id115">July</textPath></text><line stroke="#e1ed5e" stroke-width="0.3" x1="58.666819895761336" x2="56.23545636021788" y1="174.27360380694188" y2="178.64263932499728" /><path d="M 58.180547188652646 175.14741091055294 a86.0,86.0 0 0,1 -31.652253787137756,-30.449443065178592" fill="none" id="id116" stroke="none" /><text fill="#e1ed5e" style="font-size:6.75px; font-family:Arial;" text-anchor="middle"><textPath startOffset="22.20632615414155" xlink:href="#id116">August</textPath></text><line stroke="#e1ed5e" stroke-width="0.3" x1="26.63291911575756" x2="22.317208475507996" y1="142.92168965132927" y2="145.44649492493687" /><path d="M 25.769776987707644 143.4266507060508 a86.0,86.0 0 0,1 -11.730757126820373,-40.83630448921669" fill="none" id="id117" stroke="none" /><text fill="#e1ed5e" style="font-size:6.75px; font-family:Arial;" text-anchor="middle"><textPath startOffset="21.46611528233685" xlink:href="#id117">September</textPath></text><line stroke="#e1ed5e" stroke-width="0.3" x1="15.007084014347285" x2="10.007500721073583" y1="101.09737516637583" y2="101.16192664675087" /><path d="M 14.007167355692545 101.11028546245083 a86.0,86.0 0 0,1 10.666146001902534,-42.60595125391555" fill="none" id="id118" stroke="none" /><text fill="#e1ed5e" style="font-size:6.75px; font-family:Arial;" text-anchor="middle"><textPath startOffset="22.20632615414155" xlink:href="#id118">October</textPath></text><line stroke="#e1ed5e" stroke-width="0.3" x1="26.266209847984243" x2="21.928928074336255" y1="57.711370442889674" y2="55.22380399835377" /><path d="M 25.398753493254645 57.213857153982495 a86.0,86.0 0 0,1 29.58750427330803,-30.492523968695096" fill="none" id="id119" stroke="none" /><text fill="#e1ed5e" style="font-size:6.75px; font-family:Arial;" text-anchor="middle"><textPath startOffset="21.46611528233685" xlink:href="#id119">November</textPath></text><line stroke="#e1ed5e" stroke-width="0.3" x1="56.762969772571076" x2="54.21961505331055" y1="26.818313649435495" y2="22.513508569990535" /><path d="M 56.25429882871897 25.957352633546506 a86.0,86.0 0 0,1 42.265352541879196,-11.944610805530505" fill="none" id="id120" stroke="none" /><text fill="#e1ed5e" style="font-size:6.75px; font-family:Arial;" text-anchor="middle"><textPath startOffset="22.20632615414155" xlink:href="#id120">December</textPath></text></svg>