<?xml version="1.0" encoding="utf-8" ?>
<svg baseProfile="full" height="200mm" version="1.1" viewBox="0,0,200,200" width="200mm" xmlns="http://www.w3.org/2000/svg" xmlns:ev="http://www.w3.org/2001/xml-events" xmlns:xlink="http://www.w3.org/1999/xlink"><defs /><rect fill="#1a1a1a" height="200" width="200" x="0" y="0" /><rect fill="#1a1a1a" height="200" width="180" x="10" y="0" /><text alignment-baseline="middle" fill="#e1ed5e" style="dominant-baseline: central; font-size:9.0px; font-family:Arial;" text-anchor="middle" x="100.0" y="100.0">2024</text><line stroke="#e1ed5e" stroke-width="0.3" x1="100.0" x2="100.0" y1="15.0" y2="10.0" /><path d="M 100.0 14.0 a86.0,86.0 0 0,1 42.35913384403234,11.155469271406648" fill="none" id="id85" stroke="none" /><text fill="#e1ed5e" style="font-size:6.75px; font-family:Arial;" text-anchor="middle"><textPath startOffset="22.145653131862478" xlink:href="#id85">January</textPath></text><line stroke="#e1ed5e" stroke-width="0.3" x1="143.13028292997686" x2="145.6673583964461" y1="26.7553504044142" y2="22.446841604673864" /><path d="M 143.63769802327073 25.89364864446614 a86.0,86.0 0 0,1 29.32050498858742,28.57503671076993" fill="none" id="id86" stroke="none" /><text fill="#e1ed5e" style="font-size:6.75px; font-family:Arial;" text-anchor="middle"><textPath startOffset="20.669276256404974" xlink:href="#id86">February</textPath></text><path d="M 112.7482090630111 83.31218511350987 l 15.265871585008746 -19.98351594583774 a46.14732082762553,46.14732082762553 0 0,0 0.6253842185366637,0.48630255093673835 l -15.606665748180637 19.71851234328021" fill="red" stroke="none" /><path d="M 113.03279911837588 83.53348406188908 l 14.706983727466234 -18.581793500400376 a44.69764587572948,44.69764587572948 0 0,0 0.5975633165021172,0.4813547084863929 l -15.023797814323611 18.326590498120577" fill="red" stroke="none" /><path d="M 117.81537515405839 88.88188828441811 l 53.44612546217514 -33.354335146745676 a84.0,84.0 0 0,0 0.7529281421783907,1.2298515355017812 l -54.010821568808936 32.43194649511934" fill="red" stroke="none" /><line stroke="#e1ed5e" stroke-width="0.3" x1="172.87174338648825" x2="177.1583165268699" y1="56.24261187166439" y2="53.66864786411523" /><path d="M 173.72905801456457 55.72781907015455 a86.0,86.0 0 0,1 12.242430191666344,42.057860355516425" fill="none" id="id87" stroke="none" /><text fill="#e1ed5e" style="font-size:6.75px; font-family:Arial;" text-anchor="middle"><textPath startOffset="22.145653131862474" xlink:href="#id87">March</textPath></text><path d="M 119.71291397450082 92.76114493625339 l 10.790131297273268 -3.9622856712504486 a32.49463532057423,32.49463532057423 0 0,0 0.18778778176137928,0.5252758474516634 l -10.85655924907859 3.7764748674178685" fill="red" stroke="none" /><path d="M 119.94978838288452 93.4421083053983 l 10.898461863848677 -3.582540885605753 a32.4721868096192,32.4721868096192 0 0,0 0.16952844905745723,0.5310454521038723 l -10.95835502868339 3.3949263998104935" fill="red" stroke="none" /><line stroke="#e1ed5e" stroke-width="0.3" x1="184.99686870605535" x2="189.99668451229388" y1="99.2704041080226" y2="99.22748670261217" /><path d="M 185.99683186730306 99.26182062694052 a86.0,86.0 0 0,1 -10.086455211305974,41.156179273409016" fill="none" id="id88" stroke="none" /><text fill="#e1ed5e" style="font-size:6.75px; font-family:Arial;" text-anchor="middle"><textPath startOffset="21.40746469413373" xlink:href="#id88">April</textPath></text><path d="M 120.82617615685814 102.69636545807757 l 12.863881235039274 1.6654869697503272 a33.97124848561632,33.97124848561632 0 0,0 -0.07984130439193698,0.5776919056787497 l -12.833395414092127 -1.8860671836291618" fill="red" stroke="none" /><path d="M 120.77682067341334 103.0534771498775 l 11.38382682970675 1.673030520360227 a32.50610900395125,32.50610900395125 0 0,0 -0.08587573447285915,0.5513838184110438 l -11.353429603095623 -1.8682025207027213" fill="red" stroke="none" /><path d="M 120.51834098615036 104.47187691870673 l 18.63578575959442 4.061582769120816 a40.073252618992946,40.073252618992946 0 0,0 -0.15225763338340614,0.6708752261060137 l -18.56331726465335 -4.380892329165848" fill="red" stroke="none" /><path d="M 120.43855184770803 104.8234425847677 l 20.015988846382776 4.723718867034347 a41.565829169603056,41.565829169603056 0 0,0 -0.1698507911164161,0.6930491894795839 l -19.93195052875006 -5.066623881122031" fill="red" stroke="none" /><path d="M 119.94978838288452 106.5578916946017 l 44.5653588186547 14.649518624194199 a67.91140162642827,67.91140162642827 0 0,0 -0.373559853776508,1.104363330454192 l -44.30731354330583 -15.412383629122552" fill="red" stroke="none" /><line stroke="#e1ed5e" stroke-width="0.3" x1="174.33088141563837" x2="178.70328620479359" y1="141.23008692659167" y2="143.65538615756765" /><path d="M 175.20536237346943 141.71514677278685 a86.0,86.0 0 0,1 -30.301960400862466,31.631185727798858" fill="none" id="id89" stroke="none" /><text fill="#e1ed5e" style="font-size:6.75px; font-family:Arial;" text-anchor="middle"><textPath startOffset="22.145653131862474" xlink:href="#id89">May</textPath></text><line stroke="#e1ed5e" stroke-width="0.3" x1="143.1302829299769" x2="145.66735839644613" y1="173.24464959558577" y2="177.55315839532614" /><path d="M 143.63769802327073 174.10635135553383 a86.0,86.0 0 0,1 -40.68552437913181,11.842963189579606" fill="none" id="id90" stroke="none" /><text fill="#e1ed5e" style="font-size:6.75px; font-family:Arial;" text-anchor="middle"><textPath startOffset="21.407464694133747" xlink:href="#id90">June</textPath></text><path d="M 109.3889696526874 118.78422872680471 l 9.034492166097005 18.075036298569433 a41.20715185012155,41.20715185012155 0 0,0 -0.6354530373220675,0.3108319235120007 l -8.722878879512868 -18.227461972178656" fill="red" stroke="none" /><line stroke="#e1ed5e" stroke-width="0.3" x1="101.45913802915013" x2="101.54496967792366" y1="184.9874750549273" y2="189.98673829345242" /><path d="M 101.47630435890484 185.9873277026323 a86.0,86.0 0 0,1 -42.54439059252881,-10.42667462771756" fill="none" id="id91" stroke="none" /><text fill="#e1ed5e" style="font-size:6.75px; font-family:Arial;" text-anchor="middle"><textPath startOffset="22.145653131862474" xlink:href="#id91">July</textPath></text><line stroke="#e1ed5e" stroke-width="0.3" x1="58.13341422392154" x2="55.67067388415222" y1="173.97424548756322" y2="178.32567169271397" /><path d="M 57.64086615596768 174.84453072859336 a86.0,86.0 0 0,1 -31.369924170532247,-30.572349798747897" fill="none" id="id92" stroke="none" /><text fill="#e1ed5e" style="font-size:6.75px; font-family:Arial;" text-anchor="middle"><textPath startOffset="22.145653131862474" xlink:href="#id92">August</textPath></text><path d="M 85.86807049272751 115.53346607816431 l -11.331034769274483 12.454792116564699 a37.837879783670786,37.837879783670786 0 0,0 -0.47670364320763786,-0.4412297753808314 l 11.543168183796087 -12.25844459505149" fill="red" stroke="none" /><path d="M 85.60350026404147 115.28858382429668 l -19.6383992470686 20.855299452677887 a49.64629540181647,49.64629540181647 0 0,0 -0.6154426984738643,-0.5895801832608936 l 19.99351443140778 -20.51510713911141" fill="red" stroke="none" /><path d="M 85.08716467003676 114.78537596483092 l -16.214958517125268 16.07636996085742 a43.83362763186025,43.83362763186025 0 0,0 -0.5251961555055537,-0.5388975228047106 l 16.48854147378163 -15.795649745984973" fill="red" stroke="none" /><line stroke="#e1ed5e" stroke-width="0.3" x1="26.387840678322732" x2="22.057713659400548" y1="142.50000000000003" y2="145.00000000000006" /><path d="M 25.521815274538298 143.00000000000003 a86.0,86.0 0 0,1 -11.493303480769221,-40.785679425670985" fill="none" id="id93" stroke="none" /><text fill="#e1ed5e" style="font-size:6.75px; font-family:Arial;" text-anchor="middle"><textPath startOffset="21.40746469413373" xlink:href="#id93">September</textPath></text><line stroke="#e1ed5e" stroke-width="0.3" x1="15.003131293944662" x2="10.003315487706104" y1="100.72959589197737" y2="100.7725132973878" /><path d="M 14.003168132696942 100.73817937305945 a86.0,86.0 0 0,1 10.791469493833604,-42.45332614584628" fill="none" id="id94" stroke="none" /><text fill="#e1ed5e" style="font-size:6.75px; font-family:Arial;" text-anchor="middle"><textPath startOffset="22.145653131862435" xlink:href="#id94">October</textPath></text><line stroke="#e1ed5e" stroke-width="0.3" x1="26.387840678322718" x2="22.05771365940052" y1="57.49999999999999" y2="54.99999999999999" /><path d="M 25.521815274538284 56.99999999999999 a86.0,86.0 0 0,1 29.574782752854787,-30.34633250058573" fill="none" id="id95" stroke="none" /><text fill="#e1ed5e" style="font-size:6.75px; font-family:Arial;" text-anchor="middle"><textPath startOffset="21.40746469413373" xlink:href="#id95">November</textPath></text><line stroke="#e1ed5e" stroke-width="0.3" x1="56.869717070023135" x2="54.33264160355391" y1="26.7553504044142" y2="22.446841604673864" /><path d="M 56.362301976729285 25.89364864446614 a86.0,86.0 0 0,1 42.16139366436587,-11.88097634709845" fill="none" id="id96" stroke="none" /><text fill="#e1ed5e" style="font-size:6.75px; font-family:Arial;" text-anchor="middle"><textPath startOffset="22.145653131862474" xlink:href="#id96">December</textPath></text><path d="M 99.27912038922189 79.0123766808444 l -1.0853008676674412 -31.59735059501916 a52.61598397326766,52.61598397326766 0 0,0 0.9029571471920373,-0.023256973102160353 l 0.5427304064046599 31.611325285471366" fill="red" stroke="none" /></svg>