<?xml version="1.0" encoding="utf-8" ?>
<svg baseProfile="full" height="200mm" version="1.1" viewBox="0,0,200,200" width="200mm" xmlns="http://www.w3.org/2000/svg" xmlns:ev="http://www.w3.org/2001/xml-events" xmlns:xlink="http://www.w3.org/1999/xlink"><defs /><rect fill="#1a1a1a" height="200" width="200" x="0" y="0" /><rect fill="#1a1a1a" height="200" width="180" x="10" y="0" /><text alignment-baseline="middle" fill="#e1ed5e" style="dominant-baseline: central; font-size:9.0px; font-family:Arial;" text-anchor="middle" x="100.0" y="100.0">2017</text><line stroke="#e1ed5e" stroke-width="0.3" x1="100.0" x2="100.0" y1="15.0" y2="10.0" /><path d="M 100.0 14.0 a86.0,86.0 0 0,1 42.46469731375804,11.215312516191453" fill="none" id="id1" stroke="none" /><text fill="#e1ed5e" style="font-size:6.75px; font-family:Arial;" text-anchor="middle"><textPath startOffset="22.20632615414155" xlink:href="#id1">January</textPath></text><line stroke="#e1ed5e" stroke-width="0.3" x1="143.23703022742887" x2="145.7803849466894" y1="26.81831364943548" y2="22.513508569990506" /><path d="M 143.74570117128098 25.957352633546492 a86.0,86.0 0 0,1 28.547481713284135,27.462654790039103" fill="none" id="id2" stroke="none" /><text fill="#e1ed5e" style="font-size:6.75px; font-family:Arial;" text-anchor="middle"><textPath startOffset="19.985693538727396" xlink:href="#id2">February</textPath></text><line stroke="#e1ed5e" stroke-width="0.3" x1="172.23445277983987" x2="176.4835382374775" y1="55.19839476539836" y2="52.563006222186495" /><path d="M 173.08426987136738 54.67131705675599 a86.0,86.0 0 0,1 12.851231095245387,41.99856678651699" fill="none" id="id3" stroke="none" /><text fill="#e1ed5e" style="font-size:6.75px; font-family:Arial;" text-anchor="middle"><textPath startOffset="22.20632615414155" xlink:href="#id3">March</textPath></text><line stroke="#e1ed5e" stroke-width="0.3" x1="184.98032266829074" x2="189.97916517819016" y1="98.17113171792111" y2="98.06355123074" /><path d="M 185.9800911702706 98.14961562048488 a86.0,86.0 0 0,1 -9.607161424134198,41.387399972396054" fill="none" id="id4" stroke="none" /><text fill="#e1ed5e" style="font-size:6.75px; font-family:Arial;" text-anchor="middle"><textPath startOffset="21.466115282336823" xlink:href="#id4">April</textPath></text><line stroke="#e1ed5e" stroke-width="0.3" x1="174.80103733775053" x2="179.2010983576182" y1="140.37084112569926" y2="142.7455964860345" /><path d="M 175.68104954172406 140.8457921977663 a86.0,86.0 0 0,1 -30.038265399797805,32.042727171017184" fill="none" id="id5" stroke="none" /><text fill="#e1ed5e" style="font-size:6.75px; font-family:Arial;" text-anchor="middle"><textPath startOffset="22.206326154141568" xlink:href="#id5">May</textPath></text><line stroke="#e1ed5e" stroke-width="0.3" x1="143.8653032363475" x2="146.44561519142675" y1="172.8068346515853" y2="177.08958963109032" /><path d="M 144.38136562736335 173.6633856474863 a86.0,86.0 0 0,1 -40.68145358897372,12.25698825130547" fill="none" id="id6" stroke="none" /><text fill="#e1ed5e" style="font-size:6.75px; font-family:Arial;" text-anchor="middle"><textPath startOffset="21.466115282336833" xlink:href="#id6">June</textPath></text><line stroke="#e1ed5e" stroke-width="0.3" x1="102.19456741930631" x2="102.32365962044197" y1="184.97166512339345" y2="189.96999836594603" /><path d="M 102.22038585953345 185.97133177190398 a86.0,86.0 0 0,1 -42.740103519485714,-10.115201625700543" fill="none" id="id7" stroke="none" /><text fill="#e1ed5e" style="font-size:6.75px; font-family:Arial;" text-anchor="middle"><textPath startOffset="22.20632615414155" xlink:href="#id7">July</textPath></text><line stroke="#e1ed5e" stroke-width="0.3" x1="58.666819895761336" x2="56.23545636021788" y1="174.27360380694188" y2="178.64263932499728" /><path d="M 58.180547188652646 175.14741091055294 a86.0,86.0 0 0,1 -31.652253787137756,-30.449443065178592" fill="none" id="id8" stroke="none" /><text fill="#e1ed5e" style="font-size:6.75px; font-family:Arial;" text-anchor="middle"><textPath startOffset="22.20632615414155" xlink:href="#id8">August</textPath></text><line stroke="#e1ed5e" stroke-width="0.3" x1="26.63291911575756" x2="22.317208475507996" y1="142.92168965132927" y2="145.44649492493687" /><path d="M 25.769776987707644 143.4266507060508 a86.0,86.0 0 0,1 -11.730757126820373,-40.83630448921669" fill="none" id="id9" stroke="none" /><text fill="#e1ed5e" style="font-size:6.75px; font-family:Arial;" text-anchor="middle"><textPath startOffset="21.46611528233685" xlink:href="#id9">September</textPath></text><line stroke="#e1ed5e" stroke-width="0.3" x1="15.007084014347285" x2="10.007500721073583" y1="101.09737516637583" y2="101.16192664675087" /><path d="M 14.007167355692545 101.11028546245083 a86.0,86.0 0 0,1 10.666146001902534,-42.60595125391555" fill="none" id="id10" stroke="none" /><text fill="#e1ed5e" style="font-size:6.75px; font-family:Arial;" text-anchor="middle"><textPath startOffset="22.20632615414155" xlink:href="#id10">October</textPath></text><line stroke="#e1ed5e" stroke-width="0.3" x1="26.266209847984243" x2="21.928928074336255" y1="57.711370442889674" y2="55.22380399835377" /><path d="M 25.398753493254645 57.213857153982495 a86.0,86.0 0 0,1 29.58750427330803,-30.492523968695096" fill="none" id="id11" stroke="none" /><text fill="#e1ed5e" style="font-size:6.75px; font-family:Arial;" text-anchor="middle"><textPath startOffset="21.46611528233685" xlink:href="#id11">November</textPath></text><path d="M 86.37877921826538 84.01681056812374 l -14.863578075120646 -17.440975946054856 a43.91535719001716,43.91535719001716 0 0,0 0.579562393188657,-0.48536683697334776 l 14.561158144972879 17.694243940422016" fill="red" stroke="none" /><path d="M 86.65592168130627 83.78471172551755 l -21.896109346203122 -26.60743714617448 a55.45860293146705,55.45860293146705 0 0,0 0.7423440383045818,-0.6002572524081842 l 21.434861909334042 26.980400495846798" fill="red" stroke="none" /><path d="M 87.51073957382395 83.11751280151077 l -15.487945731195168 -20.935991132811758 a47.042123332893176,47.042123332893176 0 0,0 0.6551280617794123,-0.47597839817246784 l 15.125272353061975 21.199488765800893" fill="red" stroke="none" /><path d="M 88.39885842347998 82.49532879139004 l -30.689266138554654 -46.306263038475116 a76.55268717813283,76.55268717813283 0 0,0 1.1046661180854598,-0.718505571489931 l 29.887632994684907 46.82766753412458" fill="red" stroke="none" /><path d="M 89.00827224532344 82.1063720568725 l -24.83044798139828 -40.42192526568779 a68.43925788987191,68.43925788987191 0 0,0 1.0091138286960661,-0.6079797907376928 l 24.13097208648456 40.8433516658841" fill="red" stroke="none" /><line stroke="#e1ed5e" stroke-width="0.3" x1="56.762969772571076" x2="54.21961505331055" y1="26.818313649435495" y2="22.513508569990535" /><path d="M 56.25429882871897 25.957352633546506 a86.0,86.0 0 0,1 42.265352541879196,-11.944610805530505" fill="none" id="id12" stroke="none" /><text fill="#e1ed5e" style="font-size:6.75px; font-family:Arial;" text-anchor="middle"><textPath startOffset="22.20632615414155" xlink:href="#id12">December</textPath></text><path d="M 89.94658935756843 81.56283822128135 l -28.850525377774186 -52.90958687651867 a81.26422817905717,81.26422817905717 0 0,0 1.2338810330926884,-0.6590965158718779 l 27.935499298153193 53.398362118892294" fill="red" stroke="none" /><path d="M 90.26544431104013 81.39251694778311 l -8.918767198869059 -17.04811342215005 a40.240129407104185,40.240129407104185 0 0,0 0.6165161721336548,-0.31580352898489705 l 8.623990539146641 17.19910947644745" fill="red" stroke="none" /><path d="M 90.91171255644093 81.06846463323043 l -8.071810556632547 -16.814143255894898 a39.65126105902549,39.65126105902549 0 0,0 0.6178455508552619,-0.2900867705309034 l 7.7811867944776765 16.95059500906581" fill="red" stroke="none" /><path d="M 91.23893434514133 80.91482961587045 l -19.6919457064018 -42.89708053874517 a68.20097715568467,68.20097715568467 0 0,0 1.0711381811420873,-0.48058847894990375 l 18.950625406792938 43.2296893482116" fill="red" stroke="none" /><path d="M 91.90106846888425 80.62456947434976 l -7.431443050244906 -17.77856844105335 a40.26924600554602,40.26924600554602 0 0,0 0.641846009408092,-0.2618251030310851 l 7.124313171248434 17.90385443026801" fill="red" stroke="none" /><path d="M 92.57280143429618 80.3572730644239 l -17.80203284898624 -47.0810719623808 a71.33427967780273,71.33427967780273 0 0,0 1.1522784973806335,-0.4243938950635495 l 16.988972025833036 47.38052912525067" fill="red" stroke="none" /><path d="M 92.91201910852362 80.23233633223022 l -21.26394267442915 -59.30299100330936 a84.0,84.0 0 0,0 1.3652719837468588,-0.4763165873111608 l 20.239988686619004 59.66022844379273" fill="red" stroke="none" /><path d="M 93.25333710446033 80.11325718540243 l -7.786197002248991 -22.95091657682867 a45.23570579691007,45.23570579691007 0 0,0 0.7395330880032309,-0.24381243188843976 l 7.38998109200335 23.081542732976345" fill="red" stroke="none" /><path d="M 94.28887869178378 79.79150937346287 l -6.752538261789487 -23.89348760153138 a45.82932787534662,45.82932787534662 0 0,0 0.7609896840757838,-0.20800722720976889 l 6.340250688489982 24.006181369567447" fill="red" stroke="none" /><path d="M 96.40284397218896 79.31037775812273 l -4.262559661183636 -24.516798407274052 a45.88458999075664,45.88458999075664 0 0,0 0.7793187208569005,-0.1285942664018578 l 3.8399117341878504 24.586538936615536" fill="red" stroke="none" /><path d="M 96.75951476605007 79.25152402106235 l -3.8598090751859573 -24.713939455963292 a46.01353492671332,46.01353492671332 0 0,0 0.7836127338058316,-0.11548414732808082 l 3.4338273609514767 24.77671808745234" fill="red" stroke="none" /><path d="M 97.11714578562143 79.19881850522333 l -1.2116895502927485 -8.742923636323013 a29.826488841938467,29.826488841938467 0 0,0 0.5091598547695078,-0.06610356213476108 l 1.061014967015383 8.76248552162191" fill="red" stroke="none" /><path d="M 97.83486435360386 79.11191278185805 l -2.635240177342921 -25.423407885188656 a46.559619701571364,46.559619701571364 0 0,0 0.797887486801425,-0.07576903099435588 l 2.1972275634512597 25.46500246069819" fill="red" stroke="none" /><path d="M 98.19473922651362 79.07773832637324 l -2.184354979037123 -25.31581427498899 a46.40987719529909,46.40987719529909 0 0,0 0.796503573889289,-0.061824006971626655 l 1.7482612157854995 25.34966354414908" fill="red" stroke="none" /><path d="M 98.55514903715128 79.0497635885617 l -1.7270835508077877 -25.04258890508006 a46.10207315462828,46.10207315462828 0 0,0 0.7921608391124708,-0.04778530511267624 l 1.2957606628556941 25.068607479573043" fill="red" stroke="none" /><path d="M 99.27714615592234 79.0124445844662 l -0.8487747628140591 -24.643581155186823 a45.65819358246401,45.65819358246401 0 0,0 0.7856978593246953,-0.02029225767188179 l 0.42445026829448484 24.654540205001066" fill="red" stroke="none" /></svg>