<?xml version="1.0" encoding="utf-8" ?>
<svg baseProfile="full" height="200mm" version="1.1" viewBox="0,0,200,200" width="200mm" xmlns="http://www.w3.org/2000/svg" xmlns:ev="http://www.w3.org/2001/xml-events" xmlns:xlink="http://www.w3.org/1999/xlink"><defs /><rect fill="#1a1a1a" height="200" width="200" x="0" y="0" /><rect fill="#1a1a1a" height="200" width="180" x="10" y="0" /><text alignment-baseline="middle" fill="#e1ed5e" style="dominant-baseline: central; font-size:9.0px; font-family:Arial;" text-anchor="middle" x="100.0" y="100.0">2023</text><line stroke="#e1ed5e" stroke-width="0.3" x1="100.0" x2="100.0" y1="15.0" y2="10.0" /><path d="M 100.0 14.0 a86.0,86.0 0 0,1 42.46469731375804,11.215312516191453" fill="none" id="id73" stroke="none" /><text fill="#e1ed5e" style="font-size:6.75px; font-family:Arial;" text-anchor="middle"><textPath startOffset="22.20632615414155" xlink:href="#id73">January</textPath></text><line stroke="#e1ed5e" stroke-width="0.3" x1="143.23703022742887" x2="145.7803849466894" y1="26.81831364943548" y2="22.513508569990506" /><path d="M 143.74570117128098 25.957352633546492 a86.0,86.0 0 0,1 28.547481713284135,27.462654790039103" fill="none" id="id74" stroke="none" /><text fill="#e1ed5e" style="font-size:6.75px; font-family:Arial;" text-anchor="middle"><textPath startOffset="19.985693538727396" xlink:href="#id74">February</textPath></text><line stroke="#e1ed5e" stroke-width="0.3" x1="172.23445277983987" x2="176.4835382374775" y1="55.19839476539836" y2="52.563006222186495" /><path d="M 173.08426987136738 54.67131705675599 a86.0,86.0 0 0,1 12.851231095245387,41.99856678651699" fill="none" id="id75" stroke="none" /><text fill="#e1ed5e" style="font-size:6.75px; font-family:Arial;" text-anchor="middle"><textPath startOffset="22.20632615414155" xlink:href="#id75">March</textPath></text><line stroke="#e1ed5e" stroke-width="0.3" x1="184.98032266829074" x2="189.97916517819016" y1="98.17113171792111" y2="98.06355123074" /><path d="M 185.9800911702706 98.14961562048488 a86.0,86.0 0 0,1 -9.607161424134198,41.387399972396054" fill="none" id="id76" stroke="none" /><text fill="#e1ed5e" style="font-size:6.75px; font-family:Arial;" text-anchor="middle"><textPath startOffset="21.466115282336823" xlink:href="#id76">April</textPath></text><line stroke="#e1ed5e" stroke-width="0.3" x1="174.80103733775053" x2="179.2010983576182" y1="140.37084112569926" y2="142.7455964860345" /><path d="M 175.68104954172406 140.8457921977663 a86.0,86.0 0 0,1 -30.038265399797805,32.042727171017184" fill="none" id="id77" stroke="none" /><text fill="#e1ed5e" style="font-size:6.75px; font-family:Arial;" text-anchor="middle"><textPath startOffset="22.206326154141568" xlink:href="#id77">May</textPath></text><path d="M 111.7513745106137 117.40417183066458 l 27.155672156906117 40.218442869735895 a69.52786495570948,69.52786495570948 0 0,0 -0.9976430882736309,0.6611834390928931 l -26.459354369892523 -40.679924329920105" fill="red" stroke="none" /><line stroke="#e1ed5e" stroke-width="0.3" x1="143.8653032363475" x2="146.44561519142675" y1="172.8068346515853" y2="177.08958963109032" /><path d="M 144.38136562736335 173.6633856474863 a86.0,86.0 0 0,1 -40.68145358897372,12.25698825130547" fill="none" id="id78" stroke="none" /><text fill="#e1ed5e" style="font-size:6.75px; font-family:Arial;" text-anchor="middle"><textPath startOffset="21.466115282336833" xlink:href="#id78">June</textPath></text><path d="M 109.57404056367764 118.69057910512821 l 8.620530200569629 16.82912251836147 a39.90854054857101,39.90854054857101 0 0,0 -0.614108996588325,0.3079269995830298 l -8.329567296298544 -16.9750173588538" fill="red" stroke="none" /><path d="M 108.92500713936063 119.00905698771935 l 26.255670829005272 55.92102451529423 a82.77799959145017,82.77799959145017 0 0,0 -1.2950105767687075,0.5944758395367331 l -25.289192256469146 -56.36468742516504" fill="red" stroke="none" /><path d="M 105.53697534728816 120.25689768951611 l 4.5641564693016905 16.697862070646458 a38.310405021448865,38.310405021448865 0 0,0 -0.6376120330837514,0.16839913310300694 l -4.276053993406442 -16.77395255305305" fill="red" stroke="none" /><path d="M 103.06178313531738 120.77559828337769 l 2.2072540123868705 14.9772275318153 a36.138999795725084,36.138999795725084 0 0,0 -0.6162067890454346,0.08540064607264782 l -1.9491186321546055 -15.01300274338055" fill="red" stroke="none" /><line stroke="#e1ed5e" stroke-width="0.3" x1="102.19456741930631" x2="102.32365962044197" y1="184.97166512339345" y2="189.96999836594603" /><path d="M 102.22038585953345 185.97133177190398 a86.0,86.0 0 0,1 -42.740103519485714,-10.115201625700543" fill="none" id="id79" stroke="none" /><text fill="#e1ed5e" style="font-size:6.75px; font-family:Arial;" text-anchor="middle"><textPath startOffset="22.20632615414155" xlink:href="#id79">July</textPath></text><path d="M 98.37488393609728 120.93702456842531 l -1.0330316787199403 13.308963044387061 a34.34899441029546,34.34899441029546 0 0,0 -0.5890945484158063,-0.050829556417902017 l 1.2619705448772882 -13.289209235690496" fill="red" stroke="none" /><path d="M 92.40401165467489 119.57807347666478 l -4.996518100238835 12.878139624077392 a34.813459859978835,34.813459859978835 0 0,0 -0.5568146398585551,-0.22156803654423365 l 5.2174538161392485 -12.790224743127093" fill="red" stroke="none" /><line stroke="#e1ed5e" stroke-width="0.3" x1="58.666819895761336" x2="56.23545636021788" y1="174.27360380694188" y2="178.64263932499728" /><path d="M 58.180547188652646 175.14741091055294 a86.0,86.0 0 0,1 -31.652253787137756,-30.449443065178592" fill="none" id="id80" stroke="none" /><text fill="#e1ed5e" style="font-size:6.75px; font-family:Arial;" text-anchor="middle"><textPath startOffset="22.20632615414155" xlink:href="#id80">August</textPath></text><path d="M 89.7882731507175 118.34994917583269 l -30.635180547847483 55.04984752749809 a84.0,84.0 0 0,0 -1.257404932315171,-0.7139873368214675 l 31.57823424708386 -54.51435702488198" fill="red" stroke="none" /><path d="M 89.4739219176387 118.17145234162733 l -6.78519488487964 11.713464836048894 a34.5367694850415,34.5367694850415 0 0,0 -0.5118548711729274,-0.3024128800605284 l 6.98581762708095 -11.594933383694617" fill="red" stroke="none" /><path d="M 88.8546689885994 117.79835938074946 l -7.048078087452402 11.255316384569094 a34.27996805883117,34.27996805883117 0 0,0 -0.49741571870362183,-0.3174742460868347 l 7.240775608202948 -11.132327709658455" fill="red" stroke="none" /><line stroke="#e1ed5e" stroke-width="0.3" x1="26.63291911575756" x2="22.317208475507996" y1="142.92168965132927" y2="145.44649492493687" /><path d="M 25.769776987707644 143.4266507060508 a86.0,86.0 0 0,1 -11.730757126820373,-40.83630448921669" fill="none" id="id81" stroke="none" /><text fill="#e1ed5e" style="font-size:6.75px; font-family:Arial;" text-anchor="middle"><textPath startOffset="21.46611528233685" xlink:href="#id81">September</textPath></text><path d="M 79.58551787078972 104.9243191809786 l -12.64470346594514 3.050116844553479 a34.00737246745529,34.00737246745529 0 0,0 -0.13236873236564836,-0.5702410346196267 l 12.695332764241344 -2.832007152585278" fill="red" stroke="none" /><path d="M 79.4281124754447 104.21870165774334 l -12.858528036644033 2.6369137727191645 a34.12612119073707,34.12612119073707 0 0,0 -0.11305507326286224,-0.5764653828966358 l 12.902013042882562 -2.415184662754574" fill="red" stroke="none" /><path d="M 79.23777060512086 103.15116336523772 l -48.062851073335715 7.294683660923576 a69.61327044141953,69.61327044141953 0 0,0 -0.16961090685587465,-1.186258287510234 l 48.18129603120819 -6.466279901432942" fill="red" stroke="none" /><path d="M 79.04373962182676 101.35467743843564 l -13.4099207062544 0.8668587192634091 a34.43790971048673,34.43790971048673 0 0,0 -0.03314837252641171,-0.5918864592762448 l 13.422855429668344 -0.6359005436517265" fill="red" stroke="none" /><line stroke="#e1ed5e" stroke-width="0.3" x1="15.007084014347285" x2="10.007500721073583" y1="101.09737516637583" y2="101.16192664675087" /><path d="M 14.007167355692545 101.11028546245083 a86.0,86.0 0 0,1 10.666146001902534,-42.60595125391555" fill="none" id="id82" stroke="none" /><text fill="#e1ed5e" style="font-size:6.75px; font-family:Arial;" text-anchor="middle"><textPath startOffset="22.20632615414155" xlink:href="#id82">October</textPath></text><path d="M 79.00019446554 99.90962569577889 l -6.645772178044159 -0.028600599925425182 a27.645833720217645,27.645833720217645 0 0,0 0.006143948057003579,-0.4758555478832311 l 6.64429522286944 0.14299240586912823" fill="red" stroke="none" /><path d="M 79.08570108090925 98.10471618934814 l -14.34549471439649 -1.3000093377822601 a35.40427863098665,35.40427863098665 0 0,0 0.06022583789743301,-0.6064659686344834 l 14.32099175081683 1.5467508371211738" fill="red" stroke="none" /><line stroke="#e1ed5e" stroke-width="0.3" x1="26.266209847984243" x2="21.928928074336255" y1="57.711370442889674" y2="55.22380399835377" /><path d="M 25.398753493254645 57.213857153982495 a86.0,86.0 0 0,1 29.58750427330803,-30.492523968695096" fill="none" id="id83" stroke="none" /><text fill="#e1ed5e" style="font-size:6.75px; font-family:Arial;" text-anchor="middle"><textPath startOffset="21.46611528233685" xlink:href="#id83">November</textPath></text><path d="M 81.78341655067845 89.55222093294921 l -15.158610114809441 -8.693935933908007 a38.47478133298669,38.47478133298669 0 0,0 0.33443805281935496,-0.5716630419559057 l 15.006712387519762 8.953578388217805" fill="red" stroke="none" /><path d="M 84.80347519578584 85.50635884689758 l -34.91455827921365 -33.299657996654176 a69.24824973537113,69.24824973537113 0 0,0 0.8301075778287614,-0.8554988274686641 l 34.33618643768177 33.89572101967296" fill="red" stroke="none" /><line stroke="#e1ed5e" stroke-width="0.3" x1="56.762969772571076" x2="54.21961505331055" y1="26.818313649435495" y2="22.513508569990535" /><path d="M 56.25429882871897 25.957352633546506 a86.0,86.0 0 0,1 42.265352541879196,-11.944610805530505" fill="none" id="id84" stroke="none" /><text fill="#e1ed5e" style="font-size:6.75px; font-family:Arial;" text-anchor="middle"><textPath startOffset="22.20632615414155" xlink:href="#id84">December</textPath></text></svg>