<?xml version="1.0" encoding="utf-8" ?>
<svg baseProfile="full" height="200mm" version="1.1" viewBox="0,0,200,200" width="200mm" xmlns="http://www.w3.org/2000/svg" xmlns:ev="http://www.w3.org/2001/xml-events" xmlns:xlink="http://www.w3.org/1999/xlink"><defs /><rect fill="#1a1a1a" height="200" width="200" x="0" y="0" /><rect fill="#1a1a1a" height="200" width="180" x="10" y="0" /><text alignment-baseline="middle" fill="#e1ed5e" style="dominant-baseline: central; font-size:9.0px; font-family:Arial;" text-anchor="middle" x="100.0" y="100.0">2018</text><line stroke="#e1ed5e" stroke-width="0.3" x1="100.0" x2="100.0" y1="15.0" y2="10.0" /><path d="M 100.0 14.0 a86.0,86.0 0 0,1 42.46469731375804,11.215312516191453" fill="none" id="id13" stroke="none" /><text fill="#e1ed5e" style="font-size:6.75px; font-family:Arial;" text-anchor="middle"><textPath startOffset="22.20632615414155" xlink:href="#id13">January</textPath></text><path d="M 100.0 79.0 l 0.0 -5.2414759791182775 a26.241475979118277,26.241475979118277 0 0,0 0.4517038720833436,0.0038879578350232407 l -0.09022339281081523 5.240699397891813" fill="#ff2d04" stroke="none" /><path d="M 100.72285384407766 79.0124445844662 l 0.2033459694944406 -5.904007896278835 a26.90750868155371,26.90750868155371 0 0,0 0.46275683037651305,0.019927282550863182 l -0.30494363226028515 5.899632887203777" fill="#ff3705" stroke="none" /><path d="M 102.52436894288641 79.15227682838746 l 0.36631593019614417 -3.0252523616254168 a24.04734953890026,24.04734953890026 0 0,0 0.41050574419616104,0.05329542719040677 l -0.4183364029001513 3.018498611270873" fill="#ff0d01" stroke="none" /><path d="M 105.01212808612495 79.60689891045804 l 1.451941453535045 -5.907588219863083 a27.083398109606055,27.083398109606055 0 0,0 0.4517654105714189,0.11516506213112233 l -1.553415752791489 5.881720161563092" fill="#ff3a05" stroke="none" /><line stroke="#e1ed5e" stroke-width="0.3" x1="143.23703022742887" x2="145.7803849466894" y1="26.81831364943548" y2="22.513508569990506" /><path d="M 143.74570117128098 25.957352633546492 a86.0,86.0 0 0,1 28.547481713284135,27.462654790039103" fill="none" id="id14" stroke="none" /><text fill="#e1ed5e" style="font-size:6.75px; font-family:Arial;" text-anchor="middle"><textPath startOffset="19.985693538727396" xlink:href="#id14">February</textPath></text><path d="M 113.89432698308785 84.25364557470407 l 5.625568008204427 -6.375421264276792 a29.502529724260057,29.502529724260057 0 0,0 0.37789792066422195,0.33928048439152714 l -5.734476916464639 6.277641771115967" fill="#ff5c08" stroke="none" /><path d="M 115.68641384162765 86.03803664274999 l 1.605401625417092 -1.4289154228648904 a23.149212335855392,23.149212335855392 0 0,0 0.26236670893798236,0.2999305029876702 l -1.6297601979329226 1.4010693636742724" fill="#ff0000" stroke="none" /><path d="M 115.9244219780498 86.31012108654704 l 2.4521112213607177 -2.1080266366351674 a24.23367062990134,24.23367062990134 0 0,0 0.26921229305737854,0.3186624410515822 l -2.488034127905214 2.065505245954479" fill="#ff1001" stroke="none" /><path d="M 116.15771136456269 86.58626213691792 l 6.424365195177986 -5.3333512847509565 a29.34967688521951,29.34967688521951 0 0,0 0.3193545440639441,0.3914909101160567 l -6.515218231318339 5.2219762050268" fill="#ff5a08" stroke="none" /><line stroke="#e1ed5e" stroke-width="0.3" x1="172.23445277983987" x2="176.4835382374775" y1="55.19839476539836" y2="52.563006222186495" /><path d="M 173.08426987136738 54.67131705675599 a86.0,86.0 0 0,1 12.851231095245387,41.99856678651699" fill="none" id="id15" stroke="none" /><text fill="#e1ed5e" style="font-size:6.75px; font-family:Arial;" text-anchor="middle"><textPath startOffset="22.20632615414155" xlink:href="#id15">March</textPath></text><path d="M 117.84615892207809 88.93136811851018 l 16.592335232200462 -10.29097922647633 a40.52459581905572,40.52459581905572 0 0,0 0.36256815882079574,0.5959667222229512 l -16.76701918930748 10.003844731046296" fill="#ffee16" stroke="none" /><path d="M 118.89224826269711 90.83032412892265 l 5.124929117868967 -2.4874720160169947 a26.696702159464618,26.696702159464618 0 0,0 0.19710023434628962,0.41514336035993976 l -5.166987546057013 2.3988862400165147" fill="#ff3404" stroke="none" /><path d="M 119.04729006885535 91.15688171328212 l 5.210353498654963 -2.4190198257945212 a26.74451394797967,26.74451394797967 0 0,0 0.1902651627509339,0.41922406551863717 l -5.251220978369244 2.3289737514338213" fill="#ff3505" stroke="none" /><path d="M 119.34039704204932 91.81776055985345 l 5.1941929189972225 -2.1974797140486024 a26.63990755007704,26.63990755007704 0 0,0 0.17503473834606112,0.4238605025358945 l -5.2312493442294805 2.107744641059405" fill="#ff3304" stroke="none" /><path d="M 119.7369772167798 92.82701384747503 l 5.256309759296165 -1.910294403377984 a26.592675298392475,26.592675298392475 0 0,0 0.15265071810696626,0.43156413625516626 l -5.288413558212941 1.8195326406962034" fill="#ff3204" stroke="none" /><line stroke="#e1ed5e" stroke-width="0.3" x1="184.98032266829074" x2="189.97916517819016" y1="98.17113171792111" y2="98.06355123074" /><path d="M 185.9800911702706 98.14961562048488 a86.0,86.0 0 0,1 -9.607161424134198,41.387399972396054" fill="none" id="id16" stroke="none" /><text fill="#e1ed5e" style="font-size:6.75px; font-family:Arial;" text-anchor="middle"><textPath startOffset="21.466115282336823" xlink:href="#id16">April</textPath></text><path d="M 120.64145759157962 103.86396538481128 l 7.871884712408221 1.4735727797817197 a29.00861946047881,29.00861946047881 0 0,0 -0.09610150476899833,0.49001950239593023 l -7.845353274663558 -1.6088560092455948" fill="#ff5507" stroke="none" /><line stroke="#e1ed5e" stroke-width="0.3" x1="174.80103733775053" x2="179.2010983576182" y1="140.37084112569926" y2="142.7455964860345" /><path d="M 175.68104954172406 140.8457921977663 a86.0,86.0 0 0,1 -30.038265399797805,32.042727171017184" fill="none" id="id17" stroke="none" /><text fill="#e1ed5e" style="font-size:6.75px; font-family:Arial;" text-anchor="middle"><textPath startOffset="22.206326154141568" xlink:href="#id17">May</textPath></text><path d="M 111.7513745106137 117.40417183066458 l 6.579613046714885 9.744623145222867 a32.7579329853046,32.7579329853046 0 0,0 -0.47003781073585593,0.3115154305773002 l -6.410900537239065 -9.856436596891486" fill="#ff890c" stroke="none" /><path d="M 111.45004920935366 117.60387380957326 l 5.518316497385649 8.484133603714602 a31.12088632339075,31.12088632339075 0 0,0 -0.45157620948409316,0.28821730248161737 l -5.3714584858546255 -8.577865335020029" fill="#ff720a" stroke="none" /><line stroke="#e1ed5e" stroke-width="0.3" x1="143.8653032363475" x2="146.44561519142675" y1="172.8068346515853" y2="177.08958963109032" /><path d="M 144.38136562736335 173.6633856474863 a86.0,86.0 0 0,1 -40.68145358897372,12.25698825130547" fill="none" id="id18" stroke="none" /><text fill="#e1ed5e" style="font-size:6.75px; font-family:Arial;" text-anchor="middle"><textPath startOffset="21.466115282336833" xlink:href="#id18">June</textPath></text><path d="M 110.8373102113329 117.98757091392108 l 4.201286439124228 6.973219025733448 a29.141043626244738,29.141043626244738 0 0,0 -0.4318870975357593,0.2551665098497149 l -4.080631470560087 -7.044504107876912" fill="#ff5708" stroke="none" /><path d="M 110.5260780823613 118.17145234162733 l 5.003730004503659 8.63807399068922 a30.982666789319964,30.982666789319964 0 0,0 -0.4637828337758259,0.26334799700635797 l -4.854298403806634 -8.722925153490205" fill="#ff710a" stroke="none" /><path d="M 109.89434966115114 118.52300852407294 l 11.004838694826734 20.60193220689226 a44.35692799484856,44.35692799484856 0 0,0 -0.6765679796536744,0.3539483903773396 l -10.648579812646565 -20.788310016214318" fill="#e1ff1b" stroke="none" /><path d="M 109.57404056367764 118.69057910512821 l 5.343214285654242 10.431099452466698 a32.719973322907805,32.719973322907805 0 0,0 -0.5034919771439038,0.25246132966194235 l -5.162868400827578 -10.521528623037943" fill="#ff880c" stroke="none" /><path d="M 108.59647513512805 119.15986991738527 l 4.8096806872792275 10.719842128765437 a32.74938481705494,32.74938481705494 0 0,0 -0.516316391933531,0.22633793308357508 l -4.624443620687943 -10.801044615143468" fill="#ff890c" stroke="none" /><path d="M 108.2653958097858 119.30500536409082 l 3.428800123617051 8.008449480477793 a29.711597635857693,29.711597635857693 0 0,0 -0.4718888474041096,0.1972495764862365 l -3.2904398167154802 -8.066284099984003" fill="#ff5f08" stroke="none" /><path d="M 107.93186726928326 119.44442032107085 l 11.55933346335835 28.336901118274692 a51.60389117586183,51.60389117586183 0 0,0 -0.8253647352476716,0.3284296617418928 l -11.06984765206881 -28.531677624422656" fill="#8dff24" stroke="none" /><path d="M 107.2578585660854 119.70592522655815 l 4.438338328980607 12.050601764238031 a33.841956626727686,33.841956626727686 0 0,0 -0.548369327147255,0.19662573066886005 l -4.230249441203617 -12.125215035946852" fill="#ff980e" stroke="none" /><path d="M 106.91757812671514 119.82793768551818 l 2.7151848115835 7.782566999978029 a29.242607455787322,29.242607455787322 0 0,0 -0.4766966485691196,0.1617213850107532 l -2.5808184300771533 -7.828151371886905" fill="#ff5808" stroke="none" /><path d="M 106.57524785965236 119.94407469862006 l 4.90755160893949 14.885610088803103 a36.673718464687354,36.673718464687354 0 0,0 -0.6012370696921955,0.19249712327456397 l -4.650593194156354 -14.967880058737373" fill="#ffbd11" stroke="none" /><path d="M 105.88484417918355 120.15858648285463 l 2.2918046090359954 7.85059723016601 a29.17827886760343,29.17827886760343 0 0,0 -0.48334351363767963,0.13659770494187065 l -2.1563299272937098 -7.8888837284464" fill="#ff5708" stroke="none" /><path d="M 105.53697534728816 120.25689768951611 l 4.037574698486262 14.771374703893654 a36.31324655612538,36.31324655612538 0 0,0 -0.6043727011384903,0.15962032342867666 l -3.7827115545362737 -14.838686376625914" fill="#ffb811" stroke="none" /><path d="M 105.18746579009965 120.34920634021253 l 3.228724136706646 12.665524233212519 a34.07058390635421,34.07058390635421 0 0,0 -0.5695412651050695,0.13997938609269062 l -3.0102295868583653 -12.71922487761924" fill="#ff9b0e" stroke="none" /><path d="M 104.83641907484287 120.43548508189849 l 3.502335756044824 14.798537717035833 a36.20733620035416,36.20733620035416 0 0,0 -0.6077312597515835,0.13831765611635066 l -3.2470843469003783 -14.856632106729867" fill="#ffb711" stroke="none" /><path d="M 104.48393922423573 120.51570834832081 l 2.4981902912443847 11.43016014507025 a32.699979302256054,32.699979302256054 0 0,0 -0.5509300899152763,0.1154527569346751 l -2.3010687398997307 -11.471468882731466" fill="#ff880c" stroke="none" /><path d="M 104.13013068566511 120.58985236759428 l 2.0706028314826983 10.322532107791128 a31.52815583101442,31.52815583101442 0 0,0 -0.5330245891828609,0.10215543112610963 l -1.8926106277281334 -10.356644737265706" fill="#ff780b" stroke="none" /><path d="M 102.70371172650421 120.8252237178851 l 4.809004245542927 37.04114913285479 a58.35201803003472,58.35201803003472 0 0,0 -0.9971875752662324,0.12074552815733089 l -4.170689247225314 -37.11844018973747" fill="#45ff2d" stroke="none" /><path d="M 102.34483914955558 120.86867818915974 l 1.305890388177629 11.622207120842756 a32.695343007612166,32.695343007612166 0 0,0 -0.5598180756350606,0.058027432497586136 l -1.1056397159369655 -11.6429639217961" fill="#ff880c" stroke="none" /><path d="M 101.98527174616119 120.90594882070398 l 1.325337704634334 13.95649853820315 a35.01928569785893,35.01928569785893 0 0,0 -0.6005902253674408,0.051821451796574984 l -1.0849031615253515 -13.977244242278388" fill="#ffa70f" stroke="none" /><path d="M 101.62511606390274 120.93702456842531 l 1.122250595756154 14.458406274595092 a35.50189499344571,35.50189499344571 0 0,0 -0.6096812094072654,0.04204718577600011 l -0.8732066255699582 -14.475581804887376" fill="#ffae10" stroke="none" /><path d="M 101.26447882468166 120.96189622390904 l 0.6733583107172053 11.162596601263148 a32.182887565255385,32.182887565255385 0 0,0 -0.5532574478078407,0.028597090519904538 l -0.48111279449588495 -11.172533498545254" fill="#ff810b" stroke="none" /><line stroke="#e1ed5e" stroke-width="0.3" x1="102.19456741930631" x2="102.32365962044197" y1="184.97166512339345" y2="189.96999836594603" /><path d="M 102.22038585953345 185.97133177190398 a86.0,86.0 0 0,1 -42.740103519485714,-10.115201625700543" fill="none" id="id19" stroke="none" /><text fill="#e1ed5e" style="font-size:6.75px; font-family:Arial;" text-anchor="middle"><textPath startOffset="22.20632615414155" xlink:href="#id19">July</textPath></text><path d="M 100.54218724476979 120.99299961872073 l 0.825157539662183 31.949353443140584 a52.960007359197846,52.960007359197846 0 0,0 -0.9115181658664313,0.0156926118613562 l -0.27507968390308374 -31.9588235322811" fill="#7eff26" stroke="none" /><path d="M 100.18074693466247 120.99922214144158 l 0.11836444733085315 13.75160982835603 a34.752119219005124,34.752119219005124 0 0,0 -0.5982227639866077,0.0 l 0.11836444733084367 -13.75160982835603" fill="#ffa40f" stroke="none" /><path d="M 99.81925306533755 120.99922214144158 l -0.1401124399291908 16.27829681508699 a37.2788997999218,37.2788997999218 0 0,0 -0.6416236716258997,-0.011046133381568754 l 0.4202958014477585 -16.27347320442626" fill="#ffc512" stroke="none" /><path d="M 99.45781275523022 120.99299961872073 l -0.36252093313966627 14.036482570538478 a35.04116321320976,35.04116321320976 0 0,0 -0.6028409105990408,-0.020763059868862677 l 0.6040821954133501 -14.028162712243521" fill="#ffa80f" stroke="none" /><path d="M 99.09653310690486 120.98055641714683 l -0.6104214026686757 14.175373524810995 a35.18851045236069,35.18851045236069 0 0,0 -0.6049272441932794,-0.03126782879958709 l 0.8543367152754441 -14.162765889249206" fill="#ffaa0f" stroke="none" /><path d="M 98.73552117531835 120.96189622390904 l -0.9137381111123736 15.147492458634462 a36.17502702205459,36.17502702205459 0 0,0 -0.6212410416181605,-0.042844419486029364 l 1.1743419135094642 -15.129519694632148" fill="#ffb710" stroke="none" /><path d="M 98.37488393609728 120.93702456842531 l -0.6985685649204897 8.999940085107324 a30.02701055584941,30.02701055584941 0 0,0 -0.5149713558535178,-0.044433895469499385 l 0.8533842385155492 -8.986581937359162" fill="#ff6309" stroke="none" /><path d="M 98.01472825383883 120.90594882070398 l -3.9719040492764632 41.82622501704572 a63.01439183129038,63.01439183129038 0 0,0 -1.0789486308216567,-0.11183743713944497 l 4.691285276703713 -41.75165821145051" fill="#32ff4d" stroke="none" /><path d="M 97.65516085044442 120.86867818915974 l -1.6116637117690302 14.343538812216226 a35.43379941586367,35.43379941586367 0 0,0 -0.605534233688151,-0.0733217628032575 l 1.8583253685085706 -14.313671520687619" fill="#ffad10" stroke="none" /><path d="M 97.2962882734958 120.8252237178851 l -2.1077423555730848 16.23479517589891 a37.371046155969,37.371046155969 0 0,0 -0.637214435518561,-0.08831211445170851 l 2.386885382278477 -16.196108495954597" fill="#ffc612" stroke="none" /><path d="M 96.93821686468263 120.77559828337769 l -2.7909875236575523 18.938126262629034 a40.14268104776579,40.14268104776579 0 0,0 -0.6827393337554293,-0.10662984268903017 l 3.116562721021499 -18.887278112592895" fill="#ffea16" stroke="none" /><path d="M 96.58105272829116 120.7198165907248 l -2.6824933074990684 16.256690998760934 a37.476521859117355,37.476521859117355 0 0,0 -0.6355858002749928,-0.1105047383621491 l 2.9619280792461113 -16.208107681877777" fill="#ffc812" stroke="none" /><path d="M 96.22490169976321 120.6578951692458 l -1.2747891334895702 6.975834319564445 a28.091357542027918,28.091357542027918 0 0,0 -0.474921032288837,-0.09101974615973664 l 1.3946777803501023 -6.95285737505624" fill="#ff4806" stroke="none" /><path d="M 95.16358092515715 120.4354850818985 l -1.9667229263641832 8.310060894226572 a29.53962008141113,29.53962008141113 0 0,0 -0.49379936188156537,-0.12136386907170307 l 2.109475572988959 -8.27497576684084" fill="#ff5c08" stroke="none" /><path d="M 94.81253420990036 120.34920634021253 l -3.757193560550057 14.738585297211639 a36.20994411609135,36.20994411609135 0 0,0 -0.6026534063731337,-0.15916624205471933 l 4.01033740973468 -14.671727705853337" fill="#ffb711" stroke="none" /><path d="M 94.46302465271185 120.25689768951611 l -3.08300896030327 11.279117779585572 a32.69287997608261,32.69287997608261 0 0,0 -0.5415635223131388,-0.1530512609375035 l 3.2767036507210228 -11.224377725309548" fill="#ff880c" stroke="none" /><path d="M 94.11515582081647 120.15858648285463 l -2.359202267919539 8.081468514770604 a29.4187866522549,29.4187866522549 0 0,0 -0.4848846800927944,-0.14609177654227665 l 2.4979619224525793 -8.039661369122602" fill="#ff5b08" stroke="none" /><line stroke="#e1ed5e" stroke-width="0.3" x1="58.666819895761336" x2="56.23545636021788" y1="174.27360380694188" y2="178.64263932499728" /><path d="M 58.180547188652646 175.14741091055294 a86.0,86.0 0 0,1 -31.652253787137756,-30.449443065178592" fill="none" id="id20" stroke="none" /><text fill="#e1ed5e" style="font-size:6.75px; font-family:Arial;" text-anchor="middle"><textPath startOffset="22.20632615414155" xlink:href="#id20">August</textPath></text><path d="M 88.54995079064634 117.60387380957326 l -5.339704893340285 8.209527260890196 a30.793303129958833,30.793303129958833 0 0,0 -0.44184768297269156,-0.29283255105655603 l 5.480227275052938 -8.116396688742322" fill="#ff6e0a" stroke="none" /><path d="M 86.79598089348748 116.32954008644616 l -7.377282215695309 9.123557357684035 a32.733012901593725,32.733012901593725 0 0,0 -0.4350838896936619,-0.3580444208574741 l 7.53323623393366 -8.99521781796938" fill="#ff890c" stroke="none" /><path d="M 86.51685102203217 116.09983520530335 l -4.432853056921794 5.293140632235495 a27.90416714578111,27.90416714578111 0 0,0 -0.3655904632937448,-0.3115641241346528 l 4.523308996792595 -5.216052117877891" fill="#ff4506" stroke="none" /><path d="M 85.97065885151581 115.62618273729859 l -21.84651339553232 24.333117776404897 a53.70123496538877,53.70123496538877 0 0,0 -0.6825182764975506,-0.6234642632283651 l 22.262131221496723 -23.953460746589958" fill="#76ff27" stroke="none" /><path d="M 85.70375840098266 115.38237550388516 l -6.468175596764428 6.959584808732936 a30.501216567394152,30.501216567394152 0 0,0 -0.38150364760664646,-0.36073551106913726 l 6.587015078761891 -6.847214660917868" fill="#ff6a09" stroke="none" /><path d="M 85.44109423537348 115.13401014063109 l -11.324527143628227 11.77186743291749 a37.33468021985603,37.33468021985603 0 0,0 -0.45930554346829994,-0.44952714528616056 l 11.525482639472322 -11.57519018470876" fill="#ffc612" stroke="none" /><path d="M 85.18274418774928 114.88116024355367 l -11.52486927193876 11.574574171820085 a37.33381091461031,37.33381091461031 0 0,0 -0.4514891087699688,-0.4573560835100914 l 11.722399005764263 -11.37447759432933" fill="#ffc612" stroke="none" /><path d="M 84.67929136418377 114.36230785411682 l -13.739063830577887 12.879604269793516 a39.83204930662558,39.83204930662558 0 0,0 -0.4646192168832937,-0.504252396517019 l 13.95872945545691 -12.641200618475153" fill="#ffe615" stroke="none" /><path d="M 84.43433777217949 114.09645910891817 l -13.532707915606178 12.255390164147629 a39.2572936549916,39.2572936549916 0 0,0 -0.44929252936827,-0.5047849196626577 l 13.741659294622785 -12.020631074744108" fill="#ffde14" stroke="none" /><path d="M 84.19399662182784 113.82643327865904 l -4.913335935010869 4.297981586849538 a27.527902858588416,27.527902858588416 0 0,0 -0.30891221449687295,-0.35933469455218375 l 4.98659065907852 -4.212769793135824" fill="#ff4006" stroke="none" /><path d="M 83.95833913139862 113.55231037782056 l -12.63813418747415 10.67694414612866 a37.54447255249178,37.54447255249178 0 0,0 -0.412817566393223,-0.49726535228937924 l 12.82004775376091 -10.45781753672552" fill="#ffc812" stroke="none" /><path d="M 83.72743513129214 113.27417163493432 l -6.818400401337771 5.5620375726454006 a29.79925258146862,29.79925258146862 0 0,0 -0.32081320203919056,-0.4002637968287378 l 6.913131515431822 -5.443845942238403" fill="#ff6008" stroke="none" /><path d="M 83.06392112726016 112.41649034213515 l -17.683738808901364 12.964628576865104 a42.927065749833275,42.927065749833275 0 0,0 -0.4317649400183683,-0.5996837384566915 l 17.90428354129534 -12.658311232957274" fill="#f2ff19" stroke="none" /><path d="M 82.85270091963577 112.12312394758628 l -10.305888361567849 7.286253153439491 a33.62144286272796,33.62144286272796 0 0,0 -0.3300330348391853,-0.47543720171272236 l 10.429782303569167 -7.107774689539756" fill="#ff950d" stroke="none" /><line stroke="#e1ed5e" stroke-width="0.3" x1="26.63291911575756" x2="22.317208475507996" y1="142.92168965132927" y2="145.44649492493687" /><path d="M 25.769776987707644 143.4266507060508 a86.0,86.0 0 0,1 -11.730757126820373,-40.83630448921669" fill="none" id="id21" stroke="none" /><text fill="#e1ed5e" style="font-size:6.75px; font-family:Arial;" text-anchor="middle"><textPath startOffset="21.46611528233685" xlink:href="#id21">September</textPath></text><path d="M 80.58989483394504 108.01547362559985 l -58.23031549816486 24.046420876799544 a84.0,84.0 0 0,0 -0.5403895429704488,-1.3412025286287785 l 58.6356076553927 -23.04051898032796" fill="#4dd2ff" stroke="none" /><line stroke="#e1ed5e" stroke-width="0.3" x1="15.007084014347285" x2="10.007500721073583" y1="101.09737516637583" y2="101.16192664675087" /><path d="M 14.007167355692545 101.11028546245083 a86.0,86.0 0 0,1 10.666146001902534,-42.60595125391555" fill="none" id="id22" stroke="none" /><text fill="#e1ed5e" style="font-size:6.75px; font-family:Arial;" text-anchor="middle"><textPath startOffset="22.20632615414155" xlink:href="#id22">October</textPath></text><line stroke="#e1ed5e" stroke-width="0.3" x1="26.266209847984243" x2="21.928928074336255" y1="57.711370442889674" y2="55.22380399835377" /><path d="M 25.398753493254645 57.213857153982495 a86.0,86.0 0 0,1 29.58750427330803,-30.492523968695096" fill="none" id="id23" stroke="none" /><text fill="#e1ed5e" style="font-size:6.75px; font-family:Arial;" text-anchor="middle"><textPath startOffset="21.46611528233685" xlink:href="#id23">November</textPath></text><line stroke="#e1ed5e" stroke-width="0.3" x1="56.762969772571076" x2="54.21961505331055" y1="26.818313649435495" y2="22.513508569990535" /><path d="M 56.25429882871897 25.957352633546506 a86.0,86.0 0 0,1 42.265352541879196,-11.944610805530505" fill="none" id="id24" stroke="none" /><text fill="#e1ed5e" style="font-size:6.75px; font-family:Arial;" text-anchor="middle"><textPath startOffset="22.20632615414155" xlink:href="#id24">December</textPath></text></svg>